<mxfile host="app.diagrams.net" modified="2023-10-27T01:55:37.124Z" agent="Mozilla/5.0 (Windows NT 10.0; Win64; x64) AppleWebKit/537.36 (KHTML, like Gecko) Chrome/118.0.0.0 Safari/537.36" etag="TmLHTHZ7ABOf2ak9dDdK" version="22.0.8" type="device">
  <diagram name="페이지-1" id="LgVfYbKQrVkxcdeVor3t">
    <mxGraphModel dx="1195" dy="1794" grid="1" gridSize="10" guides="1" tooltips="1" connect="1" arrows="1" fold="1" page="1" pageScale="1" pageWidth="827" pageHeight="1169" math="0" shadow="0">
      <root>
        <mxCell id="0" />
        <mxCell id="1" parent="0" />
        <mxCell id="WSRzsh4i6WaBvUtmSaur-1" value="" style="shape=image;verticalLabelPosition=bottom;labelBackgroundColor=default;verticalAlign=top;aspect=fixed;imageAspect=0;image=data:image/png,iVBORw0KGgoAAAANSUhEUgAAAgAAAAIACAYAAAD0eNT6AAAgAElEQVR4AeydiZLrxrVsr2dblsL3/3/SYVmS56cXq69XK08JIAZOAJmI4Nk17iELrNwFkn3+58deRaAIXIXAv/71r8/5//nPfz7K//M///PjL37xix+Rv/nNbz7Lv/zlLz/acg4T/t//+3+fOij8+9///qz/4x//+CzbrvzsaKEIFIEisBGB/9k4vsOLQBEYEJC8k/x/+9vffhA9CcD4+tWvfvXRhuQiGWCuRC+5I//5z39+jPn73//+Wdae4wZ3Wi0CRaAIrEKgCcAqmDqoCFxGQPL21A/pkwRw4v/973//Qfj2/frXv/5MCmgjEZDUtaI+6iYWmSSMTxCcV1kEikARWItAE4C1SHVcEZhAIInYkz3Eb9nTPx8D/O53v/skfur2IUkKSAa4vv/++w+ZxP/tt99OWG9TESgCRWA/Ak0A9mPXmUXg83QOiXvCl9ipj22SfY6hnAmDsJJcjI/5qZsY+PGA4yuLQBEoAlsQaAKwBa2OLQIDAj6698t9f/jDHz5P9p7ybWOMj/8tkyDYxnjLJAVckr12aMvy4E6rRaAIFIHVCDQBWA1VBxaBaQTG0zykbkIwSsaOTwZMFOxzju1YhfRJBnwiYGIw7VFbi0ARKALLCDQBWMaoI4rARQQkbh/je4ofiV5i9xcCjM82xqOLNsvUfeFEnv6zfNHBdhaBIlAEJhBoAjABSpuKgAh48pZs80t/nMZph6AhfRMACVtyt75Hjjqw5y8EKOuXUr/7/QCRqCwCRWAOgSYAc8i0vQhMIJBES3kkdZIAkoGpE/w4dk1dPXwcYJmfFf7www8f5J/+6C5/M4ArkxX7KotAESgCItAEQCQqi8AFBPIz97/97W+fn8VD4v68z0f7tEHWEvYaop8b4xMAP1bAhnrpywTA7wdcCKNdRaAIFIFPBJoAfELRQhH4OQKSqkRLImCZk7ZkrISU/ShA8p4j97Xt6jYJUD/z6ePCr0xS/Hji5xG1pQgUgSLwfwg0AeidUARWIuDn6hAt5W+++ebjI4Cvvvrq46/+JaHf6mOAfPSvfhMByN/kgCcDvYpAESgCWxBoArAFrY59SwQ48efpGhD4fN0TuMTM7/09nfsTPvuukeiE6JH5MYPt45MG/CNB8UnFWy5agy4CRWARgSYAixB1wDsjAPH7ZTqfAPgtfEge8oWck4RNApKs9yYA/j8C43yfAtDuUwDGpi/vvG6NvQgUgWUEmgAsY9QRReBn37gfCdkTP4mAScE4Zm+dhEK9qcMkYKqPNsb2KgJFoAjMIdAdYg6ZtheB+MM7fgTg0wBP3UnIc2WI2qcBPh3Ik7p9zLdfOadzSzv6ufx5IGWfZoztxvkxof8UgSLw0gg0AXjp5W1wt0BA4lSi09P3EhEnkUv6+VhfPfyU0LLJRc5dsjPX75MJ+rHhxxd+P0DCN7ExMUBavgWG1VEEisDxEGgCcLw1qUcHQsCfASpxDTKVpOeIN9shcsnddh7RS/A+rkf6NGAc77yt0qRDf5HozmTGJMDk4EDw15UiUATuiEATgDuCW9WvhYCnZklYUrW+Rkr2OZc2f1K4RsfWMSYazLPMUwiIX/JX8iSARMAnAq+1go2mCBSBRKAJQKLRchEYEID0JUVJEiJNAr9EyIyDdCF5pPMkYqU6HEs9H9/bv1WacIx29APJ0wBjy/D5i4e9ikAReF0EmgC87to2shshMD7+3/J4XgKWcCFw/3Qw7k3159ithD81HhvqpKzNcSzJDrH2s/8b3ThVUwQOjkATgIMvUN17PgI8Euc/3+FK0pRUs22qzOf6nObzRI8uT9jOgZg9qc+RtGPXSvThp76ql48ALCNNapBcJgMflf5TBIrASyLQBOAll7VB3QqBPA2TCECkkKSEupaIGSfhUs6nCvpKe+rN8hY7OVYdSJMLpeMcY7JAe78D4KpUFoHXRaAJwOuubSO7EQKStYQJkfOSOG2fk56u6ffx//iZuzZoN1FAJlnzBEGbjtGmNuh3jH3XSBOB/IVAJkVA7JMMysY1jrnRUlRNESgCN0SgCcANwayq10UAYoNIIdqRfC8RLGQsOTtPUpUsld9///0XAKo350vuSPT5ykTBsj8pVM9eiQ0uSN1fQuAzdX2n3STBZMaxXwTVShEoAodBoAnAYZaijhwRAQhOwoZAJVykxLyFWCFnLvRClFMnZUkVqY3840GZBFjGB/5XQsk/v2+wxb+psdjgpb/653pJ/NabAIhEZRE4NgJNAI69PvXuAAhA0j66l3CtTxFmtjGeZAEpOU+FxE/x/OM8nJwl2Uw+IHUSAvWgF1tT/x1xflyQ/mwtG692semVxI+/vPTXumMri0AROB4CTQCOtyb16EAIQMa8IM48VUvsS4QqWTuO0CROTsqWDVniHx+fe6pWj4/3JWjbIWgTA6V9t5BpD5/xa/TVJMCYKotAETgmAk0Ajrku9epACCTpcRKWWJVriNUTuUQuSUqenv4J28SAPsY5lj4SBO36FEJpUrDGn7Vj/OiBREYcMhFCDxdPSfLjDGIw1o8B/acIFIHDIdAE4HBLUoeOhAAkDMlBgBKsRLiWRPOzecmck7/l/PJflhMHyNTxtOvX6AN+kqRs9XHUM1cXAxMCkwF9xUf/ZoJtlUWgCBwTgSYAx1yXenUgBJIMk1iznGOy7GmdNi9P/dR95E852x0/nqLzlM14EwGIGFKes53tW8r4bwySPXViz/i1bYzITFiyveUiUASOgcBPu9Ix/KkXReDhCEBUSVaQrkS7hSynxkqSkKY2lBI+deZKtMyRbG13rKRvXbBIJBirPechs90TfI5zzF6Jr+ozBmPEP33WV6T9JjjinXFlOee2XASKwG0QaAJwGxyr5aQI5AmcEPJLeZDTXlJ0noRInUt7/vEcT85K5yltV6JDskRKkkrn8TEAZez7Ob51x9xL6ivSePFb0v8A4r9Y4DdjTARy3DjeeZVFoAjcBoEmALfBsVpOjABknERFKJAP5HQtSUqGErS6kfZhQ8L2JJ1/q3/KhxFuYzAO5njap4wtdWMr+6b0r23LBCP153xJHp8p5xce9Zc+kgBxMkEa42y9CBSB2yHQBOB2WFbTCRGQcHTdOlJCSzLbW0b/+HTBBCAf9/ON/qzrA235NEE/0l9jgGB5OgChasMvBt6K+LWvxD9/jUCbMeA/PuC7vuKnxG+bTzXos80xxlVZBIrAbRFoAnBbPKvtZAhAMp48k3AoS76S3B4JEUK+XNjhxTXq8glAtms/iVVCZxztEKuJBU8tkkg/DP33n9TLHF6pK/u3lPUx54yxYMt+xoMtL4le/3GV5CXrGUPLRaAI3BaBJgC3xbPaTo4ABO1nz5LWtXIkZerohCh5SZBZ/sMf/vAxJk/SzJG0nUMdUqUOoUqqJhr5uD3nXxtTztdXfJD8s8xYkhWTBfoo55XJF+34bSw5ruUiUARuh0ATgNthWU0nRQDC9zNnyRrSkrCS7PaUgQUy0wZ6JUrtpC0IknYlZROBLPtkQEkfLy+TAKQEiw98DIC9tOncrVIflcxP3WN7xk2f37UAdwlfX5XGU1kEisBtEfhpt7it3morAqdBQKLUYR5BJ+FuJcUcD8mZVEhwkiTSE72fzY+EyRj7KNuvlFCp2yaxE88Ym22QK/qufWkrfdNfY9NHEwOltsGaS8IHJ5/CfHT0nyJQBO6CQBOAu8BapWdCQILGZx+ZS6aS1JycGmfyILGhV/JHqivJ07ZbS+2O6wHZSrjGMBL36MtI5M4bx22tmygwb+rKJCa/H5DtU/PaVgSKwGUEpt9xl+e0twi8DAJ52pQQJbq1BMc4yBwik/ydy0lW0qLsOP488FaivGY8sfm43Y8iXET90mfspH/iYWzX+DHOVScfY5gI4Bc+4bMJDImZyZl46n9lESgC+xBoArAPt856UQQ4VUJSkJGENJJW1jk1jyd5P5MXIk+qEBok60l7nJd6b1XGhkkHOvNKgtVHxvilPuaZFCgTE+O8xtfEwGRAia+Svf7RZlmZMbVcBIrAegS+3BHWz+vIIvASCHDClAgllL2E5kmZ+RAbutXpxwypO8dn+63LkqzShcM/CRb/OHVz0SYJ4wvkbwKAjkwCbuHriEPWKYsdTy58IoC0bDyVRaAIbEOgCcA2vDr6xRCQ9AwLQpP81hCdp2DJVckpf7zQrU7GOfYWJDqnY7TjnwUmxjF2/JVU6Ut/SQD0PXXM2V3bLtZioW6TANvRl/7p54hx60WgCKxHoAnAeqw68gURkEg49fqIPolvicgkKMmR8bShFxLlCYBPAXLMkt5b9WtTiV7LfnzBZ+vEzosry9RHX4jPuMe+PXX8yacMJlUkBz55UC/+gCf4unYfTvefIlAENiPQBGAzZJ3wagh8//33n6TiyRPysSz5TEkJCkJkvCdaMZJUeYzNfMcz9pYkOuVbtukX5CrBal+f9FkJLry80JffD/C7DGlnazkxNjFBhz6qjycDYoy/vYpAEbgegSYA12NYDSdGIE+REqJS8lmSIxFCtuj15E8SMJKahLyk+9p+yR096WeSbcarz343gKXNJIa4RnK+1kfn4ysv/RmfDDhOybheRaAI7EegCcB+7DrzBRDIz8EhFkhFApJo1sgkdGHxy2vU0SGhUU5ivqTfcelXnpovzV3bh+/GrL3ExWTAR+/Gk/qdj9Q/k4ypxMO+1LG3jD2uMen6aPzvPyYxyuxruQi8KwJNAN515Rv3JwKSQhIVZLSGpHKMSYCnaA3w7XWJVZJzrPUl6ak79Ui6S3O39hsTkssEwHhSZvIw2sFXkwH8t6zf2hnnbamjQ30mLUjXFOnfPbCNRCGThYyn5SLwTgg0AXin1W6sP0NAsoZ0JBIJSMKyPiUlsRyrEYiIpwBJ9ll27pRe29SLb5I/5dTj2D0SnX7z3vi1iT7tEBME6h/joUxsyO++++7zCYc+OI+6fiNNstKGc66R2DMZEP+U+MmLywQg+1suAu+IQBOAd1z1xvwzBCQfv+Rmfa2U0FCcj/6poyP1epqXcJdsSNDjuCTZsW9rHV36xdxRN/F5mQRQh0y9eFJATCPJQ/zffPPNBw5b/VoaP4UN9ohF35T6mYmAbZVF4B0RaALwjqvemD8R8DQ4nsapS+pbSAjFPjKHaNaS/JwN/fIUDTFLcHNztrRP+TfGnYkBurlMciTXTArSvv7bRj1jsf0aiU6SDv1WP5KXvkn8+J/lj4D6TxF4QwSaALzhojfknxCACJKUPL2uJSQJzhOzmiFIyBE9jBlPqpLUGjuSNLrVt2be2jE+ncCnJFHKxoUufTYJkfxNBiBaP1LBV8Y7xxjQk+W1Pq4dp7/aZR4JDB/H6C++Zdk1qywC74ZAE4B3W/HG+zMEIAmJD3KyvJZ0HIfiH3744ZNcIJnUJfFJUs67JJlD8gDJSq6OH5MK27dIiVLJXGzqK3X67KedsokP/VwSKk8/9FOg9Sfnqc++vRIsxVipb9pQktz5NADfTFz0s7IIvBsCTQDebcUb7xcIJBlLHJARpJEkOEdQEiL9fgsdAoQQ6VOH5GQ9bc3pznacRqdEi8z+vWX9YX4SJXV8tF/pGOr0W09QfbyutA+d6hnL1K996Qt68mOLXGPb/ZhG3yqLwDsi0ATgHVf9jWIeSYjQPfkhryUd5kM8kGHa4qS55eMEiFFyNFlI31yyTAJsc9zUPNokRolQO1uTEO2kHG3i0/gEwDoJErbFhbnGrY/qdoz1vXLUS8z6bDJl4obvto0JgvcMa8zLca5BZRE4IwJNAM64avV5EwJu2BBRbuQo2UssOQ8SgxAgkiSTHDNXluiSjClDXLwgbS4JSf+xQ1ySa8YiwSuxLenpR/bZdo3k44i0gT/6SlnC9HsCnsSToPXJvtR3jW/oRVdirD7avPBRPPVdwredsZZdE+dXFoGzIdAE4GwrVn83IcAmLfk40c+BJYFrpASeNiCNLTo9mUNGX3311edcCTGTCmIwoaFMLCYC+MAc52USgT+2I5N4t/g6jsXnJFaI1nj0FSmhUhYr/NYn9Kae0c7eOvrThutlkpF6JXZ85AJ3faXO9zsck/H83+j+WwTOh0ATgPOtWT3eiUBu2pJlEsDeMgTDlSdCdEk2l/QyV8J0HPNMBPj9PH5DllwZw0fD8I/JgmSqbmWeqrOs7b1y1EVc+qCL4mMstLMO2DRZoezcWyQp6sAXy+hPO5R5gkE/BA+GmTjyHyLpu7GMyYHtlUXgTAg0ATjTatXXzQh42vckp2RDZ+O/9gWxTpHDSIhzdiQlpGXHQlTpv8RpDJ5G82QKQOkPOvAFApT4sGNZW3slevQbO2McJgHo54I4jcM/0avPe324NM/4c0wmWLRnoob/1MV4lPgu7sbxEVj/KQInRKAJwAkXrS6vR8AN3E2bmbRNEUOSxNoyBIc+yQw7kr+n7rW6kox8RI2/6FQ/9SQebBtjkpPx+kRAH/zp4C0TAHQn0Wccox3s54XvGQ99zAe7ca4xbJWuAz76Nw/QMeo3gaHvj3/848cjf/wxCVPSlrhnPC0XgTMh0ATgTKtVXzcjILmwYUOGPkLfSiKXxo9OMdZT8aV59kFEntJtU0ru2MjyaDPjpI+65O9cdUKEI/nZt1WqxwSA07NtIwYmRtjIy7hMcoxlqy9T4z3d6x9j8Asfkfhk2fn2M2e8SKzAVZ/H/taLwJkQ+PKdeCbP62sRWIlAntyYQhLApp+k4Oa/VUpWEgP60ZGnyUs6R5LEJ0+skIwnefRK6LRjVxJS6kt+BMA8+5USdBLyJR+X+vQ3Y/FJA3MTa3GhjZf+6ftHQ/i8ZHtNP3bwTf/017mJAwmD41gLfeSeybXAz9Fnfa8sAmdBoAnAWVaqfu5GwATATZyNfy35QwCMlzSsK3EKYvVU6Ikz50g0c1LCoV+9lG9xjSQFifkUBFu8EoupcsZkv3Iupi3tYGtyQ8xZFgP1uQ7Us4w/iV1i6ty9Et0mT+JpMkC7fbbpc2URODoCt9lljh5l/XtbBDwNS3oAsYUIIBKJknlJLHye7OYvwIyhPUlzyR7688SMDa70Wf17JD5CqlMEBbkZkwRKXYL3dMx3Eiw7zjFL8V3qV6dj9BGfXbskXX3NeVlOHNV5jdSeOsA/fcz1yMSFXw70KgJHR6AJwNFXqP5dhYDkgZRQ2MwhConMzX1OJqlINhC8n1njoJu/OkbisH2U6rNdn9Cp71cBMEwWA5+KQGbYkfT1h7q+GAvSxMZx+n2t/Prrrz8TMwl2cP2jCs76mz74s0l9xh/9vtY35vOlQJ846JfY4VMma/qvdHxlETgaAk0AjrYi9efmCHCadINmM4c41pKDJMMJOMmFspdPASQdiMJ5a8jHseg02VD3tdIkQrJCn/4qJSrq+OsvEPQdrPh7BNZvKRNT9IKFTxbwXf9HkmU9GS8pp0+0mahk+57y6J86vJ9yfTz1mwyKa45puQgcCYEmAEdajfpycwQ46UoiKHcDh9QkGtumJGTiuJyDLghTElX3HGFM6aZN8tcGbZDLrciD2CUrfeUpgGQlNvYRh+SKL+mXdZOnKfJlzJYXeGFjxA0C13ZiYSz4KdFij/n4YwK1xYelsfjBOpEYEbu+5j2Aj2Apjukn43oVgSMi0ATgiKtSn26OABszxJeEvrTxT/U7Px2URB0vcSltn5JTY9DNH/e51SUZQVISP7rBBBKVtEZ7kJ5kL+kRQ5anYrqmDTxSvyd5fBNnkjp9RlrWLn6jQ99t3yNNctIn9Ji4aTux009l9rVcBI6EQBOAI61GfbkLAnlSZPPeSg6QkqTCfE6ZSaTol1x8fK60/ZKEqEwEKPvdAv2+BhQ/889TtKdVCYq647Rp0oBtfR/9tP0WMgl2JG7JVhz00XpKfRl12L5Hjrrw1fWibEJCMiDOU4lB+tlyETgCAk0AjrAK9eHuCEB2bP6c6CQb5RpSyLFu8jrNZo8OiUrCyDmXbDiPMRKHhKyNayXxqzsJNIleG/Yrbce/jCnLl+Jb6hMv9YsHUqJVBzEYhwmMX2jET8b51OAW/qUO/dJfpGUxQqaP2d5yETgaAk0AjrYi9ecuCEDakkhu6ratkc6DeCQfnXU+Yxxn25JMkkOfxDsmGtp6pNQHfcI28eizkrZMriRGY5c89+CDDjFFcpkEUDYBoE176Zdt95T6N4XXh8P//QcfHZMx5JiWi8CjEGgC8Cika+dpCPC43i+HsVFPnSwvkYNkIom5gXN6hhiZ66nTz4wZO5LglA11SiBJtE8DbMYw8RK7RGt8xkDdOJDUfYkhGFgWsylcxrbUi3uSp3jxsYn+oF8bo55b17Vp8oNdk0N85JX3i9DaZr2yCDwDgSYAz0C9Nh+OACQl4UAmEspaQpDYJZx8RG+fOiEFy2v065egQBqQiCRn+7OkMetPEpzkb4JFvMaOtEw7v9WXmMVsDT6jTnDQF8p+YXLUpW9j+63rmXCYEICRyRI+Us57ZoyBeq8i8GgEmgA8GvHaewoCbPps1G7QlNeQUBIYc7w8wX377bcfiYV61+hMApKksAPRqlfS1d6zpP4k4eILcXPpJzERO/GAE3UxgfhNcoydsYmt7XPSsUiu9Aey5emEc8V061o4f4s0RuZY1tcPR+MvB2Z96rsX9lcWgUch0ATgUUjXztMQcENmk6bsN/QlijUbPps7cyEeSI9TJ2V10TcSgER4Sb9z8MVrjnTtf4Y0bj9vH33QZ2OV8BN7+ojXmJXOuSTVg+TKBIA6c10LylvW9pLdrX36qX1884kJZZ8CjP7T16sIPBqBJgCPRrz2HooARC0ZJSEnWVza5PP/j8dxN3DKbOLMRW8+At9CbMznz+CiC6Lw5U8BHwrWhDH8IeFJEsskgD6fAjCdccYvxkrX4RLec30S65gAkHi4DuNcSXhsv3Xd+HziwP0gBtgSQ+E1WWoSICKVz0KgCcCzkK/dhyCQBJ4kwsZsfQ0hsKF7kQSwiY86tujTpqSYiYV2jiKT/JPs0z/wyL45UoYcIeatWDkeySV5+ig9CZdkzPHifC9pUpn2TAS0yZ9Rxk9ekn9ilTi2XAQeiUATgEeiXVsPR4BNmM3ZF3U36Ny03axH6RhICyJMMqRPAmCeJ07aISTnjjqn6gADqZEISG550n44cP81mIlJkpY4SGj6JyEbj4kAmCdWYJCkPYVJtoklUt3adFzqG2055h4yn/5k2eQOm/gjZmBi2Rgqi8AzEGgC8AzUa/NmCEiWSTwop13yuWbTl1R02I0b3fYt6TfhYJzlnItu/J+LRdtnlcSWZCghLuFGv0kVeFkGp3EdJHzwFdvR5pQ9dWYf89VHu/pcO9qynHOnyupy/cakyfbKIvBoBJoAPBrx2rspAhIBSvO0ymfonhqnNuW1bW7+6M+Ne+18fUiikZhoy5MhNjKRyRP3TUF7oDKTGvCSNDklJx5LWDqPcXm5Hs6XaLfoZi7jWWftuGbU1eWaOR7pOO2vka5vJjEZU8tF4JEIfPmOeqTl2ioCN0BAEpD8IU0fnUveazbmS2PQw5WEzHgJY2mu4/g+wugTJAIZEIc/rcNWJjY3gOmpKsAHIpWgL+E11ZdETCB8sVMiZTwYStBpQ9yndNrmPOpctk+RO2vnd0rQPa6lc1PqD5IXl76bHH009p8i8AQEmgA8AfSavB0CEOW4kZoM5Ea8twwR5IUtEoH8rHeNbshCwpB0JITRf+wZQ9o+Y5nYjBucKIMpsWf7GgwZk4kRSZM65gh7SS9+MCYv6iYP9rtm2NPmkm771aEd/J5a8/Sh5SLwCAS+vPMfYbE2isAdEGBT9WSFejZbN2034j2SzRu9bNiQD6+RHC7pnSILyYo+Lp8sINFPLFyvQBLEYLwjTnPt4zhP3WDi0x0xk1xd6z0Ezdy8d/CZuh8N4M+Ur1NrO/pOXR8pczUB+ICh/xwAgSYAB1iEunAdApKBhMnf/l+7OU9t2NmGHvXqJf1+Npxjp8omC/RJBBCOhILOPNVqyyRAm2eVxDliBaZrn6CIGfiJCXiB07jG1E0W1j6iVwf4ct+4FiYE2CUGE4z0J9d2au1zzZnHi0vdrvVZ17Z+nx+BJgDnX8NGEN/69w/ouGHPbcxr2yUET57UnesfgLF+SUqCSSC5cP49e9okCAkvx52tnPGOhCn5XsKNPrATC9cDHOxD5nqLtUnWkn50TZGxbc43FvXbvkW6tujOWM62rvX3NRBoAvAa6/jWUfgEQBDckNcSgOOnpDqRkBA6RyKbmmebxATZOQ8ioS7BSAQmL2nz7GVwIG7JkzoEmnWxuiTFQQJFqsNEQny1eUmffczlMsEY7yXWiDHawob2XFt1zUnnGoO2rFcWgWch0ATgWcjX7k0QkESRkoMb9NyGPNVusuBmrUwnPf17AlRO6RvbfOSNb9ji9SqXuLMGEqjJ0ojDXF1M6B9xZS3UC2bYW7vG6BXzUffUGic5u95zPq9p1wYSv71fiSPLr3IvNI5zIdAE4FzrVW8nEGCjzs103OgvbdSeRiUdCMOTHaYkN0/p9l3SmX2QjyfTPD2mvxMhnabJOJBihfPUE4e5snhKlIyjDG68WBexR6f2GLflIxjts75Zxtd88pI21sagviWZi5of+WR7y0XgkQg0AXgk2rV1NwQ4uUFAkGxu8kub8tjvXIjJy9OnYxnDC4KybUlKdMyhnGSpnbNKYpGYkX5fYgkT+02QIH7+62DbXQtwSf3UTdgcuyRzrXgaY8KBLhMMy9qivqR3qd8YRhvo7lUEno1AE4Bnr0DtX4UAxJ+Pbd2Q2fDXnBAlBglBiR4uyR9SoE/iUWpvTkpu9kMIEozyKgAONDnjEVfjnpPgMWJEgpSJACFCoOpX1zjP9pSup0SMX5a5P9RJEiNJ+zcY1q5x2hvL3oPEgC0TP20caPnqyhsi0ATgDRf91UJm45ao2YAhBjf5cUMe60lUudsy0mEAACAASURBVOGLkaSAfueOpGL7kvR7APoqGWjrjBJ8xMhEDAkWawha/JGWxZE15FK/uImj49ZK/cEOSQZ/edEEILG3ba3epXEkAWKT8aTNlovAMxBoAvAM1GvzZgiwWfsZLhsxG7tEolzaoOmHHCQIEgEuP6eFKNAF8UNKlP29+RrdzMukQUJT3gyMJyrKWEwA1mAzjmH9aMuTM2ElKbuuylHHWHfNaDcxZK298DefANDOmudTiFHnljr6uJfEiFj6BED0K5+JQBOAZ6Jf2zdFwE3Zk7xkYvuUlPSzL53y1LlGV+qwnCTliVb9kpr1s8o///nPH64bj/iLwZIEF+aYJOV48ccAJPrHP/7xZ09icvxYBn/9ca1dy9Sd2NPu2FHf1jqxpZ0SfyLd8rMRaALw7BWo/asR8PEqBOLG7QlyzYYNQUgKlDmpQWYSGnX05EmeurbW2JDcCBZ9ngavDv5gCvgC4BZsMkESY3EVfzFDirV4Wl+SEDEvxyVs3j9I1yXHOmevxBax+JFPltOPlovAoxFoAvBoxGvvpgiwabOhShpu0hK69TkpAUEolHmNBM1c9Dl2tDWn23Z9gVS88lRo21llnmpZD5IosRKDS1J8GOM6UJ5aBxO7tQmARK4/Pg3I5EJiBn9/weD4S37Tl/rxKev09yoCR0agd+iRV6e+rUaAzRZiZoMfN+GlTfxPf/rT58kwiQEyg6iTbJL8JZNL+h3DF9c8XaKX16tcYEZsxCSZZ8J0CZ8k2sQWvLjEjDJ6WFvXN9flkg2TBiVjTcDw3bK2XLP0bU4/PjieMcZvLK+yxo3jNRFoAvCa6/o2UbF5s4lLCmzCEkO2zW3gY3smAICobjb5b7755jNRWEMO6vYLg+OivEIS4IkZnIgHnIzX+C9JidIxrB3YmlCAGXqpO0bs16yv94ISHVyS/dSaMIbxOUfbUxI/JH76LRNbryJwZASaABx5derbKgTccCUEZZ74pjZu2tzklRr0W+GMUV/q0Ga2zZUhrCQDT5xKbZ5V+msJcUKSCIzkPoePJ+jEFCxMkCBr1sdx6M+xc3rHdv0TZ5IWXug3gaFvnHepbjLi/WOdOb2KwNER6F169BWqfxcRYON2Y2fTlSQubdpTfWzcXBK/RlMnutno3ezT7pTObEMfP1fEX65XIX9xQhLvXmJ2HutA4ub3CiRosd6zvswhGZGc8XVuHYjBxMV1znUcy6M/zNHXuacMiVnLReCZCDQBeCb6tX0TBKaIh01YUhk37ay7WdPm5WNtx0kc1C2vIYccj25JRzuvkARA1MYhXj55Udo+JcU/8QQndfIUgBf9jnGORD2lN9tcM9q41J1rQhwQtmO1lXoulcdY0Z1fLvww3H+KwMEQ+GnXO5hjdacIrEGATdlN21MeBGHbpU177JMEsAsJQQKSTX6ubWKxxoYklafBfBKwJsYzjAGLraQp/p6ixdt4Jer87sVItOq4JFkv10/dSBOy77///iPJoK4vrJvlS7rpUzdl7wmTyLTXchE4GgJNAI62IvVnEwISrDI3azfjbJsqQ/KSgUTNBi75qyf/BK19U/rGNgPSBnU/37bvzBLMwIOXWK0lz8TKxAos0AlevBjD+qobuTbZyPsC/egjsXAtlNh0TZXp25oy87R35vWs7++DQBOA91nr00bqo1Q3bwKBQPdu1ONmDqFAOJI/BJGb+Th+rKcfJgkSFLrxW93EIukY19EXRv8zhtFnMQGLxMP2OSlh0k/SwJW4YNs+MVWXCYH1KYkvztNn1xrdrgV9OX9LAuNTCWLBFtcrJXjiVvl6CDQBeL01famI3KCRU8SQm/aesmQlaJLcWl2SSxLZ+DfkjUH/86MG7R5V4itXEhplSZRkCaw8vYsDBLqGoMXZ+YkDNuxXgje6XTfbl2QSs2usLWJkPkSO3i269TsTBvVWFoGjI9AE4OgrVP8+iF8SRfr56tKmv6afzR5CUz/l77777kdO8msIjPkmATnesssn+WuH9iRVxx1R6jv++pM//DQWSV/iJHbLa9bg66+//iR640c3L4kZKdlSRv8aGyYMzOGC/NGLFH/KJm3qTEJn7tzLdUbqH3Ze8Xserk3l6yDQBOB11vLlI5FwCNSNd25j3tIucP6vgj7SXaNDwoBoeEmGEkiSjHaU9lk/ogRzv4ynf5yY+eIcF/9rHsTnehj/GuzGMehzjcVGfJXYmUq4Rl1ZxyefZKjfutLxrJv6bVuS+GbcxABe41OGD7D6TxE4GAJNAA62IHXnSwTYSN1MJQUkm7Kb7tIGfakf8pIUtON4Sc36nPTkl/0SluQp0WDDOL6M9Jg1McFny+KFNFkiXvEy9jVEyhqaLIFA2lEPp/MRY+bYn7iPZf1Ct08yKOO78TBn1E+b8Yw6s078Oc5VJI4zrbN+V74XAk0A3mu9TxutmzUBsLHmJnxNGWJO3ZQlpDUEg+0kAH6yBvExV6JM0P344izkQAwZh/4riZ94/fLjiMfS2pgkgDnYmzCBGXNzDfi5neO3JH/pf57OsccLOxC5uk0GrC/FoJ/4RJJxlrXN+7Ll90SgCcB7rvupor72/5u/tIEDhASBzE0/iX1ORyYLSUrogQg8+fvxAvZsOwtRgAvEOeVvEnSW5/CaamdeXtgCI/BkDejPtXCNJOopnbapO9fC9XbtM3nJNUyb6puS3gPGgH4Si15F4OgINAE4+grVvy8Q4OTJJpwb9dSmvLZN5ZKy89aQi2ORjodw9E3dkkGebvNxtOOOKPVd3yBSfSdWyRgMJEIJG5kYTZWdox1l6mWemELKJgVT+qba9B0JOZsAIBk/+qmtsX1Kt234xAU2qT9tt1wEjoZAE4CjrUj9mUQgN1U33bUbNCTjWDZ3yxrycbaEgP6RgLS5JNHNi2vqxKzNM0nikJiRmQAs4UG/hJplT9esDfpNjpRr9DqG5MtEgjbK6tfvxFv/keq4VnK/eHmvWq8sAkdFoAnAUVemfn0g4ONgKpQhVzZbf7a1ZeNOIoIk2KglHB7RSxroX5sAOE6/9Ad/X40ITJSIjW//G+slCS70J0H7tMQ29EHGSdbMy0fzczbUb3/OQT8XelmLfHqhLeddI7kXExvs8OpVBI6OQBOAo69Q/fvcTNm0IWkJZNz85zZxxjs2iUVo/W37OF+CGtuzjj51k2CYREgw2jir9LRsPJLb2iQJPEy8+BKf+Igh2GlDjOxbK1Ova4Edyny0MyZikvVa/WvGZXJhHJVF4OgINAE4+gq9uX+epCSJ3IzXELTjk3ggL0kAeCE39DtWvRKX7XPSn8LRj24u/X2l5fNpCYQqwc5hMrYz3jUwgQMrydkEA7zE3fGjrqxL+LZZR6rbNcg1oc+xzt0j1YEN7lVtek9pu7IIHBGBJgBHXJX6NIkAGzSkgWTjdfNd2rglFKRzMJBJADqSyE0ClnQ7Tr8Y72XyYv2sMk/RJAHEtYacwWJqnGtAX2IEaWLLOcpLawDujENnjqcdfa6xxKzEziW9W/rUyfpS1qYJ01nXvX6/PgI/7VavH2sjPCECEIQkkSS7ZYNmbJIDZS42a3Qjp/RJ7lN9tqkXAuJkC7Fw/fWvf/2QZ/9HcssTOjGvXQuTL/ByTn4kIz7+TDIxN1EQ6yk5jqGuDnTrv/eQbTluSu/aNr5z4JqnDZMA46ssAkdEoAnAEVelPn0iIPH4iF7CZZMfN/+5TTv/v3bG5OVjYfXSz6a+VnfahOAgHElH3WnvbGVJLeMy5sTMtjkpKZsEMM5LnCDSqXFzOm3HD9YMqX50c+94/+A/J3JtOfda6fdHsOe6j9I4K4vA0RD46V14NM/qTxH4LwJs4mzU+Yg+T5aXNvGRyJknqSmdn4Qmkdh3STLPz7VxWeKRfM6+kOLkqVYsEi/bRikujHXNwJa6RCk+zqVvjW7HjxI7ib1+a4ckgPtiyxqPNqyrM6VJxhhfjmm5CBwBgSYAR1iF+nARATZUicSNd+3mPRKJZIZBNmhejFEf5OGc0aa2U0IkJhno9HHwxYBO2mki5ildmXhMlcWTPrGi7CVhrsF7Sn/6YZJoAiAJI7WT/kzpm2pLG9lvDJVF4IwI/PQuPKP39fnlEXADZ9P1BMnj3rkNOTdny544mcM1knSOo7xFd47FVxMMHjfr+5kXSdKUUPeQNKTPmokzBMylbsrgZT/yf//3f7+oZ1+W0e0aSOx++U6fkbkWzHdO6poqq5M+7z/KxJM6z7zG9f19EWgC8L5rf5rI2XDZsD2lT23Uc21s4DlPcuCxMMTAPEhEYsuxueHP6addMhFQk4BXIQgxEwPw4pXkaN8oxcZ25lHmkqApJ+5r9KpvlOhRt+tAnTIJB2uqD+Pcqbp+eX8Qj8nMq6zvB2D95y0RaALwlst+nqDZZJMQKLOBszFn+9TmnW3M8fIzYQhIHVOkYF/qmSpDDiYU2OAJw6uQg+RPPGAuoSun8BjbHAvGkqdr4VMAsZZwqds26ss6OhmHdK66kRB/JgLOZY4fF9g2JdWdfSYDaaflInBGBJoAnHHV3shniGeKnNmQ59pzs85NHtgkHKWk4abOhs8rdVwqO98l8eMFidP2s0pP6cQjDsa8Bn/J3znoAPskZZ/E0LdGp34gUy91LtdAG+h3PRiz9SmAdoxFOyaSZ13b+l0EmgD0Hjg0AhBCbrxsvhC0J0nqSy/GsulL+gT8l7/85Wfz0OtPBhm/JhGAgBiXJOPpP+0dGuQF5/i7/8RIrKxH4rSE/UjQjOfKn8/RRqKW5A/+S7qzX1KX9CV81sK/McB4Ej3XVZl6pspjDNwj2lmArt1F4NAINAE49PLUudx8R1JYs4FLKp5kQdQyiYXJhU8AIADbnDtFCtkmwaA7Sf8VSEIiTXwy9jVl1sl1pCxe6k6cJXL0ZvslO/xnPOpXJ08BLPsuUofruyUmfOHlEyWfMqi7sgicEYEmAGdctTfymU0bUnCDp84GnnU39ikpiXAS9GROApDJg+VMMLI8pdc25nKhMwn/lQiC2IgXzBP3tRhJuOhwDcSHujoZ53qt1e3aodtLG9ZdF+yoVyJ3HS/J9D/tqL+yCJwVgZ/eNWeNoH6fHgE2aE/lSE/RksGlzdk+xjp+3LDZ+LnSBvPGcepKiU5IZko3emnnwmeJ5qMh7Fk/qhRv/PPULFa0gUc+OpdEE6dLZeaKH/okf3VfmrvUl2uIPsjfBADJmiBHn7ec/rGh//jDNa71R2P/KQInQ6AJwMkW7JXdzS9Vrf3/5t3IPUWyQVOGtHmx8UM4Epv45Ya+RDLZn/MojxfEgC1JaOw/Wl0iS1L2Eb24JbZJpEm+iVGW84TOeHExwcixe8vayBjA2dgooxvfk8ydd8muMbLWjj/aGtafIrAXgSYAe5HrvJsg4OlTQmDT5gXpJPFc2qQlJcbzebBjJWsdhZix46a+Vj/63Pwp86VC56LbxGUkIO0eXUqUxpH+QtjgCGbffPPNJ7aJh3hPSdeA+a4x+imD19ScLW36gU6TC/1nvU3G9APdrl22XbJJkuk9g24TJKX2KovA2RBoAnC2FXthf9msudjI2djXbNCMMQFwE2fDNhGgnwvCkegYx4Y+znN+ypEs0i8+R5Z0lGknCe/DiQP/Azb6ayLDeoDF1Dr45CWxmipL0PS5DkjwWqtjSu/YJrT56wLbtGMcyjXfA3AsknvBy3vJemUROCMCTQDOuGov5jOEI4FCOmyuSRzjZp91xyEt28+mzeVmrQ37t0oTBuxAKnxMwfX9999/fq6tDZ5sSKgfgw76j9ike/pNHxh5+kVCgmNStAZHyJYrT81r5i2NYY15jXFQZw1YD/rVYyzWlySxmijgv0mqT64St5aLwNkQaAJwthV7MX8lTEmH8CBYSWZpgx77Pe25aaNfG+h2/Ndff/1Ztm1OQiAmF5IJyQBX6iYRkIjOQhD6m7Gk72Bi7Fleuz7gxVp89913n9hgC7updw77pXZ0oMv7Z+pjDHR4X6gPv8Y2+1K63tjJi3XPZCb7Wi4CZ0GgCcBZVupF/ZSAkqjdgNcSBJu0p1PnKiUG4aN9zcbvfHzw1OgTAOdzGkQ/L+PAjmUfpWv7qBL/9VXyZz3AQAL0DyQlfmvXhzmJC+XUTfmaF/o8mROLZe3oJ+tHmZhsW2uXhIdLnNLGR0f/KQInRKAJwAkX7dVcljA9vbkpr9mkxzFs1BJ1ns4lNskcG47T3iUJaUiGjBsvCQGbkNBZLnHBb8v4T11slfnXFxOLS7iBMWPFZ9R9ae6aPn0Gb+8jytpxjZWp07iybapMwpd20J/31lnWun4WgRGBn+9k44jWi8CdEWAzhSCQnq7ZiKc27XGDzk08yZ1xXEnGtPnRwNpH2MxRb85JvXeG5+7qJU7wz7hGrOfqmQyYJCRWBKAN9aMr125O99QY7wskl+TsfaS99GtO/5p2fPDkjw2vLNtWWQTOhEATgDOt1gv6Om6ibMg8bs5EYGmTZqNP4pF8IB0JB+jQw1iJwXFL+rOfOcwf/T7z0hBLfp4NZsQs0Wb8Y1kMc6y/wHBsYrNFt/MhYDDHlnZMDFwHpIkA9qg7/xqpHXR6P4FV3lcZX8tF4EwINAE402q9sK8+InazduO1fklKQoxhHi+JAcjcuNWhbhMB26ekiYgJBmO48DcJ56xLI+76L24S7hQm2ZbjxJV+y+gFJz/eSWJOTFNnlsF/XCef4ugz+vUbqa3Uc00ZOz6h0iZSm9nWchE4EwJNAM60Wi/qqxspmzTEwSnPx+5LG7dEwziJgTKXBM1pjSRBnRCKxL6kP/ud82rLkEmATwIy7ktlyRl884Qu1mDl+lKGnNcQ/5RNddKH3dQ72sn7YkrX2jbs+PEFNriXsIvMdvp6FYGzIdAE4Gwr9mL+5ibuxr52cx7H5ZMAN2c3a4kqSWScP1UfkxH0cE39wZkzLo1JUiYBYLSFQE2MEj/xVr/Y+AgfG7leOTfLJnXqU2KTCyLmxeWaI9GhrdS3p+w9qvwwNiQ2tlUWgTMh0ATgTKv1or66gbs5SwxK2+ekpEB/EgMbNmTAC13qc/wWguB7CczXV5bC0/KZlyWJ3zjAMX/2N4e77Zks8OeCwQmMkzDzsXyOV8ecdK1cO8apO33PdTEBmNO5pR296jYe6q+SALrmle+JQBOA91z3Q0XNRu6m7IlPafuclEx4rOzpno06N+78G/Zr9WoP4vGES8IAuaBfMjgUkDudMUliOrj5iF48xWJKOgZSzoQK3MRKt/hDSX/84x8/1zpJfUo3ba4v+rGlDXUi//znP39UXRN9mtO5pT2fYIwJn/bSl5aLwJkQaAJwptV6UV/ZSNmU3bhz09+yWTN23JTVDXGoF7mGfLQN+TA+T5z+LOwVlgSi9iJW4t6aKJkkZSKATk/P2HCM6yC+S9J5jmMtWdf0W/950sA4EwXn7JXGkGtP+ZXWX+wq3w+BJgDvt+YPj5jNOk/kearSGTdoCEQSsm1JSubM40r9JgAkF45T3xoicg4SvejzyrJtZ5RJZmAjLmvWIRMFiNo54pAYiTvSZC/b5sragNRZB66R/LWDVI++WJ+SjkGOcRtDZRF4VQSaALzqyh4kLsklN2zKJgQ+/veU58kNgnBDntq4bWMMpOAG7okTsqbsOCVj0e3Gb/samZC+4mfAxAQOe7BJ/FhLLtceST9Eju4t+r0vMmHIdcjTOGV0s8bj3yJI/6bK+oQ976e003IReEUEmgC84qoeLCZP5BB/EqenNknfTRhStzy1WY9tbvYmGeoFBsZ6gpRMaEP/GhuOMbFAZ5YPBvVmdyBNLj7f/tOf/vSZMEG4EOGI9VSd7wywZr7A7K9//eunL+DlGolnEvqUTtvQSRnp+umv6+y6YyfHaUtdUzL1533I3F5F4NURaALw6iv85PjYpCUZXeFEyBfCuPgvddnY3YjdhKc266m2/LY6+iABEw6kJKDEjsSmzSm9tpk8oJtY1O3p9iOIk/9jTMa8lpwZL65iSpv6WAtxSt051vZLEhveF0DN/YRuLslfm6lnTRzcA8bAXJMM1toE4+TLW/eLwCwCTQBmoWnHLRDIjdqyGytSgmUTlpDdkLcQBWO5JATKzuf06cYuQUAO2rFtTuJj6jWOW+DzbB0jQYOBuCjncLFdogVvyq6viR/jRvxpc73VMyXBPseJF+uRa0I7811zfF/rf96D6KBuQqG9yiLwigg0AXjFVT1QTJCBhIBb/h5c6abtT8+o54ZPfekF6UDK6sQeGzjzkgT8LT/tniiXdNPPxUcXEj/6Jc4DQb3LFWMizimSXsIHfFmvxBlHxAf96IBUJWftWF+yQT/6WTPWNYk/E4Et+rTJHPz3RTtXPmXYBWwnFYETINAE4ASLdHYXIUw21Ny4jSmJI8tu0EuSObw8bWay4eZOfyYVEoVEdMlG6sZniU3/X0ESU2JgMrYlSWI+iRiXSQVrwnqojzGpM9ck7Y9lnzCINTq1oTThUydzWLtR11ydedpRp/Yqi8CrItAE4FVX9iBxjZspSYCPV9mgJWM2ZjdgCXvNBu4YwtWWZJCbvcTDRs/LeTlmroxuSEe/s3wQmK9yAyzEQwK1PoeJ7a6fa6cjJnuMG3W5FmO7OqckfnGxBuDPpWTdmeOjfMramNKVbfjgPWE7uvX/w1D/KQIvikATgBdd2DOE5YZ7jWQD99F/PgVA5xaCmfMhcZRw0o5EkcmBcxxv/QhSrEyW8BEClMghTpOANU9IxI154C0exmr/XimRk2BwiTNl14Gy+vFhz7qjn3n5hCdtfRjvP0XgxRBoAvBiC3qGcCRGN+1rpCfD/Hkh+iSOa3Qzl0tS0G/aIDrqvCDTJD6JSfnMNZHok8wSK3wTI5MAT/O2X5J56tZWJhmX5m7pw0/1UzYeMEaPyYrrTgwmMpfsjMkCusHHNafeqwi8KgJNAF51ZQ8cl0R6aWPe0meoEoRz1xCAY+ekJ0Nt5JcBadMmZZMCyuPfjXf+M6TJSfpqmbghQQnUJIB2yXQOG9tNGDI21vgW+OMPvplMmbzoPzb1UzLHrmV9XJJjDGKWMbVcBF4NgSYAr7aiJ4jnlgkA4UoGbNqUIY0ksqXNf22/0Oo/0rInUsbYpl/Oe4bUF7DhJZEqJekpwrTvEj7iDAkTLy9sgod9l+av7QO7kZSxc+3fkcC+sWMD/zn9g4/YPWPdarMIPAKBJgCPQLk2vkDAjXXt5n9pnKQg2VJ3/BoCc+wlCUHwqDuJwsfcBJaPi2nP+heBP6ky5Y9rIEn7BADMtuLGt/ynCFO8LmG7pk9fgW9cbz+CwJZ+a9fY1thgDFfaetJy1WwReBgCTQAeBnUNiYCb7NqN+dI4dSL964LjI+FL89f0+XiYsRIlbXmZgNhGImCctj1Lph+cmCVriVIMIFD/siIYSqj2T0mxNrbxycLUnC1t4Azp5xMWbJnUoAuiz58arvE7fRAHYzDJUNpeWQReDYEmAK+2oieIR0LKTXhvmXB9bGvoe3XNzYOEIIn8e/aeLiVTCMq4TAaU+vUMKSFjO8v4Rly8iNvEhrJtEuMcLtlubJImfVuJOPVlWd3imzJ9zHLOXyoTr5dPdpS2VxaBV0SgCcArrurBY3IDX9qY1/SPJEudeXvJYMmmJ00SAG1wCubSF+JLsj3CcniCxrc8PROvRO1pnrYsX8KEua6n8RNv6r00f6lP3ek3dqiDv4kYejJxwS/XZ8kG47hcM+PQ9hHWrz4UgXsg0ATgHqhW5yoEljbmNf3jps3mLaGNBJAEQZ/j1tiZG6NO+wncUzBlSISXbRIxfko0q8DaOUh7+iVea2MXJ7HMeE2CdM2YHOMcsbkknTOOSYz0XXvj2Ll6JjOWM3789HKdTJJsrywCr4hAE4BXXNWDx+TJam7D3tJOqP40TIJAf5KP5OLmv0X/2rE8GdAOc7j8WODZpCLe3haQGz6mv2vjTFwtE18SZpLrkt4cm+sDnvqN9GeV2BLPnDtnRx8zVj/usE396vXxv3VxqywCr4ZAE4BXW9ETxOPGPrdpb2k3XDdrJPrVIUko85Gx3yB37B6JvtQJqUhk+oY/nsQp66uk5rh7Sb4cyUla25S/+eabT4zWxC1+jIWcjRmdXiYB6vMLhdanpHqSlP2YRd3ihR2fMkzpmmrDb9cDfzIOx+s/Ulskk/n0Ice0XAReBYEmAK+ykieKw43dDfgaadiSG3X1SyRs+m78nAglnWvsjnM9TdqedtJHy4+SYiGxYVdfxUSfp6RYeZJmjmUSKPTzBAbCpEzfGr3aSn22mQzga5KwJ3PaGSuxO++SxI5+qZ/Y8DltUCYWE7ZHrVPtFIFnINAE4Bmov7lNSenShr22D2JDH6/8CACIOWFLYGz+lk0MthDInD9JeBBrEg1zJBvKkAv+jn7e+3bQHhL7EriJwFxsY7t4ESNx8ZNCrkwuxJi52hn1TNWZl/6gV8L3fjEO+tLOlD7bJH3rSP2ib/T/o+G//zQJSDRafkUEmgC84qoePCY39NyU95anQuVRdJ7qRt0QgCQw9m2tq2ckpCR+dEI2ECgS38Rgyv9btmkr7eFPku1SzMQokRovsXj56B+CRpeJwpJe+0fseFSfSUX6TlLAPP1Rx5xMX7TD2hgHMag/bWbZOCuLwKsh0ATg1Vb0BPG44c5t2lvaPRVKQkpgoOwfB6KOXj+XhgBGkt5i17ESyRS5QFI+FWA8YyUkifmRywUe+CF56ouxTEljoM/x4gb2npIhTMaIg3JK51Qb2PDyexmuo4kcT3O0xTj8Mo4pfWObCU/6Bfb4Ldlji5d17T1yjWqrCDwSgSYAj0S7tj4QuGUCIKTqpE5Z4qBumQ2dPklmJIm9dYkxCcmPGdTpGOoSKKR078sESZk+6tsaKUE7Nv2WOOljnGPWSsnZ8al7LDtmrRRr4nYNSAKo5z0j6WOPsniN9lsvAq+EQBOAV1rNk8WydhO/NG4p22V3uAAAIABJREFUZMnfcWzunuwktTwVTpUlEfywX3nJt7V9JgIQkkQ0+m1daTxrpDoZq09r/ZfQTRwka8kT3ZQlV/UnZrZNSfUj1TEXI+3o0AfllN5s03fatEe5VxF4dwT6Lnj3O+AJ8UseuUnvLa9xH3uc6JIInQcRShCSA3UJUpLhqYFlxzlmr+/MQ4f6PHUiJUGkPxe0jXh4TcVjXCn9Mp3++gREu0v+O17JeH3VDm0QOBipV1yX9DPOOYzlUr/JmrGvTSzSJrrziQz2uNT9Uek/ReANEWgC8IaL/uyQH50AZLx+tiwpQqKQi6QvyScpUYZQkBKQ45JorilDniYD6a9lfJQETQDsuyTFmjH4lyS+JgaTBiU6uPQFosZGErhjs20JG+aAAeuTPmPLZEAd6OXlutg+JccY9Slj+Aio/xSBN0SgCcAbLvqzQ3aDn9qwt7YtxSJRSfSM177SkzR17CdJUodotv7hnLVx5MnUOdjDB/1TGqsxje32j9L4JEx0W9bmGpnkmTiaFNmvHHGcsgHxpy/6TowkaZI/sTJWQldO6RzbHItf4q2dyiLwzgg0AXjn1X9S7BLXuFHvqS+FAJH4qFe7nDL9dcAUmTJeXzzNZl3C8jNr+/ZKbECiEpX6kbx8WqGvxJzlSxhI/pKyPmJvjM2+UeIXseoX9sQSmbqNYdRxqY5e56Eb/NVvnCQC6tDvtGvfKNXrHPrRLy6XsGtfEXh1BJoAvPoKHzA+N/dxs95TXxOeCQCbvsTPPPzwEfaUHshD0kuyyfIeny/NManQLmM5SY9+iuGU32MbJIoe4vG0fsmHsS99Qbencu0wftQLRmPbqJc64/JUTnIm6Sv5g0P4AIkznrI/55zSmW1J/Lbjt/9/hDFUFoF3RKAJwDuu+pNjlrzckK+RS6H4mX+e+ChDLhIMdcdJbiYN6Nc/SYh6kqL9eySE7ylVKWlpQwmh+jQAv9LHSzhAmurWR2yseUTPeOxKuGmHdaRf/3xKIElra61Ut3GxJq7HmmRizg7+JaZ+qVLd2q0sAu+GQBOAd1vxA8T7yATAcCF77ebGL9k4Dmm/0j4IBnKTaLJs2zVSIkVHkrNPBbLdhEXf5iQx6yf6SQTSzpK/aRsSRh+4iKX9ytS31o7kTCLmemSiw9qhl3GOpT5lM+1bzuRHv9fiN4dr24vAKyDQBOAVVvGkMbhBXyPvHbpPCSQOyNTTqMSa/ktQ9CXxWKZ9al7q2FImfn0zYUGm3+jDvr6pfw1BmzQwhwvdPk2RmNV3jXQd1U3dGNAL5vq7lvj1x/WinnrFTduVReDdEGgC8G4rfoB43XjdoK+R9w5HXzmZWuYRMo/Ek8ghJetJUJAWryRfy0lM12Kgb4nHFEFjm2RAX9fYlXhTN+U1c5fG5Of/ibG2SDjEC12JrUnVkg37WbNeRaAI/IRAE4CfsGjpQQhIVm7M18h7u+wp1NM1j471nz4JSUJVQk4Qp3Vi/Oqrrz7JzHnXxM5ckwjs4ZsnaCVj/DjBsbThV/o254d+ol+dJEBgkMQ8N39tu/iynugGWyQv/MR+/hTTpGRJv/5D/n/5y18+bxdicW0/G1soAm+GQBOAN1vwI4TLps61tHmv6X9EPPorSSmxLYngK2STp30JFuJP8nWs/WvinBuDDk/RjIGU9VfypF1b6d9aEoV8M2biJtmQXOd8W9OObi59Nsn4aPzvPaLvqW/EM/vGsn6qc7Rhe2UReDcEmgC824ofIF43+3Gj3lO/dzg8lpbk9VsypJ59U4Q6khdjHKfcE/c4ByJFn6dypLanEhDG2z/qyrpEK85+eW7N3NRzqQyOYqsdPw5gHr4qicsY1/gw+o/+XDPtVRaBd0SgCcA7rvqTY3azv0QKa/seEQonRnxGSoDY9SRJQmBSQDsE5amTOKYewa+Nb2mcBMc4CRHbkqZt9PMYXPJM/5Zs0C9pEh9Y0Ja21+iYGkPS4uXP86iLM3MyUbJsHFM6s83xqVN7lUXg3RFoAvDud8AT4j9TApCklFBJ+Er6KEOUxMfP2KZIira1p+8ksktlSF6iY1ySPu1jv36tJXDjJj5exJc2Lvm21KduEwzwtpyxkLyoS78zZvumJOPzck15ytCrCLwzAk0A3nn1nxT7mRIAIOKkz0tiEjbJ337bkSYCxAopceKWeCWptQTm+CmZRJyJRRKm9pHYNCmY0je2QZ7jb/KJ4xa+Y8tLLK3zBEAbyvyuQ8Y9+jzWWQPvuXENtVdZBN4RgZ/ege8YfWN+KgLjRr2nviYANn8f10sEefqzz8fOa3RuGYNeYvOjAMr5CD7bJbs9WOydMyYmfnxAO0Sb+EHU2MHPNSTMmIwpbYHBuA4mAjlnKa70wyRBO+jBf4nf7xawfml7y3p2bBF4FQSaALzKSp4oDkl4aWNf078UNht/nt4hY+1L/Oqwnfp3331n81UySYaTtI+vJS2JTsKSfJGZJKzB4pox2tIvdOGDmCD9+/l77KBL3cYosNqwbsLkuEv2xE3/GcuXHnOO+l0L9JsQaLOyCLwjAk0A3nHVnxyzG3Ju0nvLS6F4omTDl8By8ycJkBiU9iuXbCz1Gy/jKOPT1Knf5GAvFnvnmYQ4n1O0bfgrLvjPGMlW8nXekjQ+dDNXfPkPmihjy2Qtf/N/SS9JhX7oM+MtuzbGkGsxJoCOrSwC74JAE4B3WekDxekmfGljX9u3JizIRbJhPBt/bv5ZVh/jTR5s2yvTtmWeBkBSEpWSUy9EKamtxeFW4zylq09/OTVz2e6jdutzknjGWKhzD/hCb66BJ38xmdNNu/6ik5fJiTrUaxy5hvZlW8tF4J0QaALwTqt9kFgfmQBI4m72SQSQsHVPiEj9uwVc6tK+Om1H8jRgiuzWkuwlglzqk0DziYRfINRXpPigT3Jd0j32q5f2vFwjJDjp01o7PllIe+pQtwkM6z2uRfrSchF4JwS+fCe+U+SN9WkISH65Ye8trwlCkmes32jHngQDWXB69HKMftq+V2JfXVke9emHp9i9mGyZJwaJB2VIFfKUQPFfvc4BM9vmpGPtl5iJHSIWD/GhnbHjPOdPyUye+OgAv7CTOsXatW0SICKV74xAE4B3Xv0nxe7GPLWZb21bCkHyd8OXLCQi7Em8lCEeTsOceCWLJRuX+iFQ4jVm/cnfu9Mm0SJHn7ZisnX8mHCAkb+VNzbwQ2+OXZMAjGNILLjEQf1Iv/znGqWtuZhMFFjDHI9dfPbkn/HY5j2RPrRcBN4JgSYA77TaB4lVMpzb1Le0bwlJvT4yhjwkEPrykTvtENG1l7EiJT2luq1DSI5Pv/T7XlLChTS1i2/45aN/6tpPorVtSULQJl3GTbKTiQ/t+rKkb+x3TTMR0I74aov2jMtxlUXg3RBoAvBuK36geMdNfE99bTjqTiKybUlqA9KQoG1DSjBK2jxl5rg9ZUlz9BGi5CVh0w+B54l7bu6oaxwHwaf/xC3BOjft2HZJpg1xEK88iatjrX71mjiIx9Q6abeyCBSB/0OgCUDvhIcj4ObsZn+NXHLeR+oSmKdXiELSuGQfgpFktAVx8SIOPybIE2WWnXOtlOzxJZ9U4LuxUZYAKRvrpfhyHHrQn4Sca6U+7KedS/oZp3+U0Yd+fvrnJYaSvl9IFPdL+ulzvJK2PO1rp7IIFIEvEWgC8CUerT0AgSSVpc19qX+NuxKXhAKZWl7ST79jTRhGm+NJ1vhukQigS9LEbvqLP8YmyRqbvub4qTLfzB/HGo9xMA/ylqCn9Fxqcx520Jm4aMPYksTXJBnqVuIHlzF8VPpPESgCkwg0AZiEpY33RMBN/xJprO1b8vPbb7/9OIFKchLmWv0QCwlAEpMncEjG0yt+5Mk525d8XOoXL6W+m5hIlPpl+9pYGcccx+MPHwEQDzbFDruUGQsu2a5Po5SYTVAyVvFSqg+sLY/6LtWNWxviZb2yCBSBLxFoAvAlHq09AAE35kub+dq+JXclbshBUpEoJKe1tpzHeOZCmONFUuAJ1zjHMVvq6FAP0m+zY0Pix58sT9UvxZhzJX181HbGnXrm2nNMltGpfnBCv+Q/6iJhWLs++M9auL76vgXnji0C74hAE4B3XPUnxyyhJTnsLS+Fgl6IxNMxdYlirU3ISJJEeprN+Ut+7O2XIJXosewX9fDD07t+pm+XyuKiRD+fn5vEQMyjTvBz/CXd9DFWvOc+lycZYOwctmtsOEb/9+LdeUXgnRBoAvBOq32QWB+ZAOTJMssSxpKEvJynlNAgLIlXCcQStPIWsEv2fLTgxwueoCVWYsE3n3qMxL0UK356MqeM3jyFG6N6xMH6lHQMvqhf3d4H4Dr6il3jmNKbbSRk/pXBDyP//Uf92dZyESgCPyHQBOAnLFp6EAJuzLmJ7y0vuZwEJslAOBCThH7JNmMcBwFKaONTAMegizJEeosrkwiTAPRme9oxFmO1fkk6Vj2sTyYVxD3imPVLuukDMy4TF8rqx5bYMQ5fxHhJL/2ZlLAm+u49ZkyVRaAI/ByBJgA/x6QtD0JgzQa/NGaNq+q4RNqO2SpHsoIYJVRIiNeYDEDeSeDZLzESVxL+pTiZI+GpS2KEXC+9iJcY9Cf93YrF1HiwwD4fKYw+UufFPMaNScWI7ZR+Y6NvC2aX8GxfEXgXBJoAvMtKHyhOiWBqQ9/athSWBKNekwCl7ddISGiKwNAJqXHyxQ/IOQk+y8SRdYl8KT7HKbEj2aJvKS70m2igw7WhnbiW5q/tNw79/O677z6axvkmUGttm2yhB99NZIg9Y9F+ZREoAj8h0ATgJyxaehACbszj5r+nvtZldHuiVI4nzj328wTKfBOL/PzaR+j6Cjkl2dOej8chSfolS+dNSbDMuYxZM29Kl+RJH/ZvgQ+xe2Xc+E0dzMRK7Ggbcb20NiYB2jEO7zPbK4tAEfgSgSYAX+LR2gMQcGO+tKmv7VtyF1uccNEH8Sep+Zh8ra2pcZlMWPb0qsx5jDH+kaghckjR/qXYsp8YMxHwVJ9jpsqSpeP1KX2+toxO4uIyNu2KkTLXSDyX7JM4ELu+E4t2pmJuWxEoAv+HQBOA3gkPR8DNeWljX9O/5Ly2HKfOtT9jc/ychLg8gToGQvrqq68+kg6JjcQDQjPpwB8Jiz9WlJc+S5LZN5bV4Rz6/QkfbUsvxpt4pO4xJmPbKol7vPRPbMAqT//YwL79l2ya0GnDRMaEw/bKIlAEfo5AE4CfY9KWOyMgWV3a2Nf2rXEVIoV0JEt0ryGXtT5I6pCRP0fTBqQvmWpTyTyx0DfrWwjMPw7E3Ewa1LkGI8Y494cffvjAR7/X4jA1TrJHfz6hwJYYOQ/sJHQxtW9OMh6MiVXMxDBtr8Wg44rAOyHQBOCdVvsgsbpBz23qW9qXQvJEqE3GS4xb7MyN9eQqcTEOQoLkkc6T0Gi37Fik5L2VtCQ9JfFBrsSIzqWXpJ/krM8mKtb3SNfHdaCuLcl7xEosxXbJrgkQuhM/Y9OHyiJQBL5EoAnAl3i09gAEJOOljX1N/xp3JRzGSha2rbGxNEYCk/CT4PNRtsQ26rPdWCTzNQQmlsy1LAmuma9NpEmDJ3/jGf3dUtcHfNMvbI06xAybvNYmH4zVd21Rz4TjY0D/KQJF4GcINAH4GSRteBQCIwnsqd/CV4hJEsaHLEuG2caYW5AjepLoLGdMJgPK7EtCtQyJS+Q5dqmc5Dn6Rf3SK0/q4CQ2+DFeJilrbSTu4sNcbYz6Wy8CRWA9Ak0A1mPVkTdCIEngErGs6bvWpSRW/JJYIBt/njaSVRLRGh+XxmgzyZM5XpK7vnK6lbAlfOvMsbzmFKxukwZ9XRujvjPPUzxlvmTppT/WeQqTxK7NOZlj//jHP37Opb1XESgC+xH4aZfZr6Mzi8AmBI6UAOj4X//6V4ufBCMhQYa8kuzsu5VMwrWMPZ5ATF1gSEIglozhy3uSrcQ+NXdsM7GgnXiwn6R7KcYkfcYxD79JKPBFf9DtEwGfGIxzp+zoBzrFJceNsbReBIrAegSaAKzHqiNvhICklRv53vK1LumLeiBDSQvy4SVh6aMEOUVIjlkrJUEITrJzbtaT0PVZQv3+++9/9pn3mBwY3yjVhQ7KfuShD2ukcxIn7ICjyQVlYkCiE+zW4OcYbIARePlLC30fY2q9CBSBdQg0AViHU0fdEAE37jXksjTmWrfwBVLSJ/X5mF3CgowlOn2SnKzfSn7zzTc/e9rgxxH6iV9c1pWevOkzQTCmKemXIh1PDBAtcm18jJP8mYuv48cP+oudtLEGM2N3rH5NxdO2IlAE1iPQBGA9Vh15IwQkKzf0a+SNXPpUA2ninz7aYSKAr19//fUHiV3jd841sYBEJV8lZGeZcSQi1JPo/UWDEp+nYjCWKUkiYIyS+Ui86bNlyTifVmDbk79JCLpp5ykAcaA756hvTooRsTtvKo62FYEisB6BJgDrserIGyEguc5t9lvar3VJX5Tok7QoQ6r20S7h4aNEtMXfcaw61Cs5Mk7SY4xJgOMkwjF+iHbt43/mMp64jFn9W/5SYvrJfC+TAOvKEYOluvqRJidpR72VRaAIbEOgCcA2vDr6BghIqEsb/5r+G7jzSX7owjdIkcvP3bONdvr97H6Nj0tjTAKUjJfosm0sQ4ISoZ+vfzj+338k9Wwby5J0rsmYbCz5b78+YwPb6tQPcXW8dqxPSeKjnbGW/TPLYyytF4EisA2BJgDb8OroGyIwteFvbbuhO7tUeTqV/PB/TA7yNC3pjWO2xu147ZsISLpKg5LoqWfZfiRzJFn1r5XOG/1Qv/4g0en4tfpzjnPVXVkEisA+BJoA7MOts65AQDLYsvnPjb3CjZtMJRZOuPgHqUtOED3kLOHTbpLgSd6xc7GtbUePOpkjvgRIOQmfb/t7jV/UY+xen5yH1K52so4NfHT82hhzjnNTf8tFoAhsR6AJwHbMOuNKBCSoLZv/3NgrXbnJdOIhCYDsSQIkfX2W+K1L1hKZ7XulevJJA4El8eNj1rMsCIxR11ZfnIfkco1Tt+3odvwWO85RqruyCBSBfQg0AdiHW2ddgYDksGXznxt7hRs3mWosEKpfqNPXJH6SAl4+sqcskTl+r0SPSQdlEgzsUMav/AzeXwrod4JA216fnIfkGvVbRxKn47fE7Bxl+t5yESgC2xFoArAds864EgHJYMvmPzf2SlduPt3YUIzPkLGEZQwmAdavkanLst8vUE4FSVLglxztx/fR17W+OQ/JlThknXZ0On6t/pzjXP2uLAJFYB8CTQD24dZZVyAgOWzZ/OfGXuHGTab6h3Q4/RsXxGoZI/gOGUvQ1EkM/ChgLra17fk0QXL0owjq2NUfngD4FGAEgDHOX2vbcc5DcmlPG9aRzHG889dI5yjVXVkEisA+BJoA7MOts65AQDJYs+kvjbnCjbtM9Yt1JgSeso0DMs7P6m2/RkqI6shEI/v0RfytCwTtOV59a6TzkFzaSN22o8/xa3Q7xjlKdVcWgSKwD4EmAPtw66wrEJAc3NivkVe4cZOpPEr3M3YJVfI3TgzRxpWxJlFn+5ayTxEkRR/7j983QCdX+vvREP80AQgwWiwCb4BAE4A3WOSjhriF6ObGHjW2Jb8gbB/dS+JTTwbs8wuFftkPPCT9OWyy3WRDv0xarCObACQaLReB10egCcDrr/HhIvRknAS1t3y44CYcMl6+kW+ZjwqMGZKXzPkrd5QlbMZQt5+6SYBSPXPS/z2PpwNckv/4U8AmABOL16Yi8MIINAF44cU9amiS4BxhbWk/aoz6JdkqbUeKg2TvKZ/4bUNK9FmW1Jewcq4fDWAXX7Q9+pOJxpLu7HceMmNTv/aQzHN86lgqO0ep7soiUAT2IdAEYB9unXUFApLB0oa/pv8KNx421e8GEDfkO35HwG/lEy/kxv+UJ8mJgQmBdcdmfapMApCJBUGLv34JBO2j3SmdU23OQ6aN1G078x0/pWuuzTlKdVcWgSKwD4EmAPtw66wrEJCA5jb6Le1XuPGQqZ78fdyef4oXB8RCSdsYv6d32kkOsj6OnapLmMwl+YD4055A0ObYKT2X2pyHzLhSt+3ocfwlnWOfc5TqriwCRWAfAk0A9uHWWVcgIPmMG/ye+hVuPGSqCYC/AsAoBJx/oY82xv3www+fPkFyeeq3LPnxEYCP95dwcw7fNchL32xrAiASlUXgPRBoAvAe63yoKN8pAQD477777hP/TARoBItsExv/noC/AlAukf1UP4kCLx/5Q/zYaQLwuSwtFIG3RKAJwFsu+3ODluSmyGpr23Mj2W5d0lWKhR8RWE/N9IGLJ35O9Fs+BmA8Ly9tW1di26cFW9fBedoZ47CORLfjt9hxjlK/K4tAEdiHQBOAfbh11g0Q2LL5z429gRuHV2FygKOSn3hYV+aTAsokDfStuZoArEGpY4rA6yDQBOB11vI0kXgalMSukacJeqejkj+/FPDkDl58J0Cyz58E+rjf7www1o8TwF19rkG61QQg0Wi5CLw+Ak0AXn+NDxeh5HMN8Tv3cMHd0SHJ28/ywcCPBfKnfmLDyV+s0y0TCaV9TQBEorIIvAcCTQDeY50PFaWkJFFdIw8V2J2ckfhVn/UkcXD0ylM/ePNFQ8aKvUmE45FNABKNlovA6yPw047x+rE2woMgIAldQ/zOPUhId3NDohaz/O+HNZpJgL8ocLxjkP4NAhOInEd/E4BEq+Ui8PoINAF4/TU+XISSkyR+jTxccHdwyJO7hO3p3uTA7weIa7rAHAjfsfSZJKjP8U0ARKKyCLwHAk0A3mOdDxWlRHUN8Tv3UIHdwZkkbk/umDEJmDIJwYPxOEbiZ07+bQJ1NAEQicoi8B4INAF4j3U+VJRNANYvh1gxAwJPEqecp/gk/BznGOWc9SYAc8i0vQi8JgJNAF5zXU8Rlaf4a+QpAj2Jk00ATrJQdbMI3AiBJgA3ArJq1iPgqfYa4nfueqsduYRAE4AlhNpfBF4LgSYAr7Wep4imCcAxl6kJwDHXpV4VgXsh0ATgXshW7ywCTQBmoXlqRxOAp8Jf40Xg4Qg0AXg45DXYBOCY90ATgGOuS70qAvdCoAnAvZCt3lkEmgDMQvPUjiYAT4W/xovAwxFoAvBwyGuwCcAx74EmAMdcl3pVBO6FQBOAeyFbvbMINAGYheapHU0Angp/jReBhyPQBODhkNegCPhTvmukuiqvR6AJwPUYVkMROBMCTQDOtFov4mufABxzIZsAHHNd6lURuBcCTQDuhWz1ziLQBGAWmqd2NAF4Kvw1XgQejkATgIdDXoNNAI55DzQBOOa61KsicC8EmgDcC9nqnUWgCcAsNE/taALwVPhrvAg8HIEmAA+HvAabABzzHmgCcMx1qVdF4F4INAG4F7LVO4tAE4BZaJ7a0QTgqfDXeBF4OAJNAB4OeQ02ATjmPdAE4JjrUq+KwL0QaAJwL2SrdxGBa37/79xFIx2wGoEmAKuh6sAi8BIINAF4iWU8VxB9AnDM9WoCcMx1qVdF4F4INAG4F7LVO4tAE4BZaJ7a0QTgqfDXeBF4OAJNAB4OeQ02ATjmPdAE4JjrUq+KwL0QaAJwL2SrdxaBJgCz0Dy1ownAU+Gv8SLwcASaADwc8hpsAnDMe6AJwDHXpV4VgXsh0ATgXshW7ywCTQBmoXlqRxOAp8Jf40Xg4Qg0AXg45DXYBOCY90ATgGOuS70qAvdCoAnAvZCt3kUE/C3/NXLRSAesRqAJwGqoOrAIvAQCTQBeYhnPFUSfABxzvZoAHHNd6lURuBcCTQDuhWz1ziLQBGAWmqd2NAF4Kvw1XgQejkATgIdDXoNNAI55DzQBOOa61KsicC8EmgDcC9nqnUWgCcAsNE/taALwVPhrvAg8HIEmAA+HvAabABzzHmgCcMx1qVdF4F4INAG4F7LVO4tAE4BZaJ7a0QTgqfDXeBF4OAJNAB4OeQ02ATjmPdAE4JjrUq+KwL0QaAJwL2SrdxGBa37/79xFIx2wGoEmAKuh6sAi8BIINAF4iWU8VxB9AnDM9WoCcMx1qVdF4F4INAG4F7LVO4tAE4BZaJ7a0QTgqfDXeBF4OAJNAB4OeQ02ATjmPdAE4JjrUq+KwL0QaAJwL2SrdxaBJgCz0Dy1ownAU+Gv8SLwcASaADwc8hpsAnDMe6AJwDHXpV4VgXsh0ATgXshW7ywCTQBmoXlqRxOAp8Jf40Xg4Qg0AXg45DXYBOCY90ATgGOuS70qAvdCoAnAvZCt3kUE/C3/NXLRSAesRqAJwGqoOrAIvAQCTQBeYhnPFUSfABxzvZoAHHNd6lURuBcCTQDuhWz1ziLQBGAWmqd2NAF4Kvw1XgQejkATgIdDXoNNAI55DzQBOOa61KsicC8EmgDcC9nqnUWgCcAsNE/taALwVPhrvAg8HIEmAA+HvAabABzzHmgCcMx1qVdF4F4INAG4F7LVO4tAE4BZaJ7a0QTgqfDXeBF4OAJNAB4OeQ02ATjmPdAE4JjrUq+KwL0QaAJwL2SrdxGBa37/79xFIx2wGoEmAKuh6sAi8BIINAF4iWU8VxB9AnDM9WoCcMx1qVdF4F4INAG4F7LVO4tAE4BZaJ7a0QTgqfDXeBF4OAJNAB4OeQ02ATjmPdAE4JjrUq+KwL0QaAJwL2SrdxaBJgCz0Dy1ownAU+Gv8SLwcASaADwc8hpsAnDMe6AJwDHXpV4VgXsh0ATgXshW7ywCTQBmoXlqRxOAp8Jf40Xg4Qg0AXg45DXYBOCY90ATgGOuS70qAvdCoAnAvZCt3kUE/C3/NXLRSAesRqAJwGqoOrAIvAQCTQBeYhnPFUSfABxzvZoAHHNd6lURuBcCTQDuhWz1ziLQBGAWmqd2NAF4Kvw1XgQejkATgIdDXoNNAI55DzQBOOa61KsicC8EmgDcC9nqnUWgCcAsNE/taALwVPhrvAg8HIEmAA+HvAaaI+VDAAAgAElEQVSbABzzHmgCcMx1qVdF4F4INAG4F7LVO4tAE4BZaJ7a0QTgqfDXeBF4OAJNAB4OeQ02ATjmPdAE4JjrUq+KwL0QaAJwL2SrdxGBa37/79xFIx2wGoEmAKuh6sAi8BIINAF4iWU8VxB9AnDM9WoCcMx1qVdF4F4INAG4F7LVO4tAE4BZaJ7a0QTgqfDXeBF4OAJNAB4OeQ02ATjmPdAE4JjrUq+KwL0QaAJwL2SrdxaBJgCz0Dy1ownAU+Gv8SLwcASaADwc8hpsAnDMe6AJwDHXpV4VgXsh0ATgXshW7ywCTQBmoXlqRxOAp8Jf40Xg4Qg0AXg45DXYBOCY90ATgGOuS70qAvdCoAnAvZCt3kUE/C3/NXLRSAesRqAJwGqoOrAIvAQCTQBeYhnPFUSfABxzvZoAHHNd6lURuBcCTQDuhWz1ziLQBGAWmqd2NAF4Kvw1XgQejkATgIdDXoNNAI55DzQBOOa61KsicC8EmgDcC9nqnUWgCcAsNE/taALwVPhrvAg8HIEmAA+HvAabABzzHmgCcMx1qVdF4F4INAG4F7LVO4tAE4BZaJ7a0QTgqfDXeBF4OAJNAB4OeQ02ATjmPdAE4JjrUq+KwL0QaAJwL2SrdxGBa37/79xFIx2wGoEmAKuh6sAi8BIINAF4iWU8VxB9AnDM9WoCcMx1qVdF4F4INAG4F7LVO4tAE4BZaJ7a0QTgqfDXeBF4OAJNAB4OeQ02ATjmPdAE4JjrUq+KwL0QaAJwL2SrdxaBJgCz0Dy1ownAU+Gv8SLwcASaADwc8hpsAnDMe6AJwDHXpV4VgXsh0ATgXshW7ywCTQBmoXlqRxOAp8Jf40Xg4Qg0AXg45DXYBOCY90ATgGOuS70qAvdCoAnAvZCt3kUE/C3/NXLRSAesRqAJwGqoOrAIvAQCTQBeYhnPFUSfABxzvZoAHHNd6lURuBcCTQDuhWz1ziLQBGAWmqd2NAF4Kvw1XgQejkATgIdDXoNNAI55DzQBOOa61KsicC8EmgDcC9nqnUWgCcAsNE/taALwVPhrvAg8HIEmAA+HvAabABzzHmgCcMx1qVdF4F4INAG4F7LVO4tAE4BZaJ7a0QTgqfDXeBF4OAJNAB4OeQ02ATjmPdAE4JjrUq+KwL0QaAJwL2SrdxGBa37/79xFIx2wGoEjJwC/+c1vfmTNf/nLX/7429/+9qM8F9i//vWvj67//Oc/c0PaXgSKwI8//tgEoLfBwxHoE4CHQ77K4BETgF//+tcfZA/5mwRQ/tWvfvUjRP+Pf/zjIzbJ3nuLxiyvAqCDisCbIdAE4M0W/AjhujF7ir9GHiGeV/HhiAkA9wanfu+Rb7755keSgl/84hefBP+3v/3tRxKAf//73x9JAevxww8/vMqyNI4icDcEmgDcDdoqnkOgCcAcMs9tP2oC4CN/kwAkCYD1OdR8KjDX3/Yi8O4INAF49zvgCfE3AXgC6CtMHjEBkOh55M/LjwSUtJEI+FHAP//5z4+nAN5jK8LukCLwtgg0AXjbpX9e4G7OnuCukc+L4vUsHzEB4N6Q5POjgCwzxoSAVeGjAF69ikARuIxAE4DL+LT3Dgg0AbgDqDdQecQEQKLPjwH+8Ic/fJz6eTpgez4pIBngahJwg5uiKl4agSYAL728xwyuCcBx10Ui3fpUxnlILtfYSK0j0e34NXZy7O9///uP+SYGl3Rpu7IIFIFpBJoATOPS1gcgsGbzXxrzADffxgTknGS7hH32Ow/JJeELnvU9CUDa2VP2FwL6ovQJAd8b4NJH2i07trIIvCICTQBecVUPHpOb657NfJxz8FBP5R7rIpGPOC/VnXe0BAB/ePFRAT8X5MqEwCSA2P0iof39FcGpbt86uwOBJgA7QOuU6xBoAnAdfvea/YoJQCYufplQ/P7+979b/EgKqPD3AyR+/6Lg56AWisCLIdAE4MUW9AzhNAE45iq9YgIA6fN9gfzOAElBXjwF8EkA7SQAJgE5ruUi8GoIfPlOeLXoGs8hEWgCcMhl+fjc20f5eXJeU3Yekss1NlLrSPQ5fo3uW43hYwDs+pNBkoOppwAmA30C4OpVvioCTQBedWUPHJdkcIuN/cBhns411mUvMTsPyeUaC4J15KMTAIhf0sc/PwrAD9vxcyoZ0P/KIvCKCDQBeMVVPXhMkkETgGMtFOsikW9dG+cdMQEwlvwYgJ8TWtd36lw+AejHAMe6P+vN7RFoAnB7TKtxAYEmAAsAPan7VRMACX78o0H5BMA+2noVgXdBoHf7u6z0A+L0y1MSvCcp67pg3ZPZNVKdldcjcOQEABKXyH1sf81941yfAljn4wH1e5+K7PidAJ8Q+PNBxnnPK51bWQSOiEATgCOuyol8yk0xNz03RaWbKeN5seHmZ7FuwFvliaA6vKtHTAA8mee9QhniHsl7673jeBILSD9t2If03mUBvX9dTP+IEN8fsOz4fD84vrIIHAmBJgBHWo2T+jKe/P0ylRsiYZkosKGy0c5ttrnxrimfFLJDun3EBIB74De/+c1nwvjVV199lGn3icCa+2RuTD5ZYIwJx+9+97sPO/mnhyV2Fo9723vaJwFIE177DrnQdaoI/BeBJgC9Fa5CQJJ3c/SvrbkBegpyY+WkxesWmzcbdq/bIXDEBID7xARAEudeykTA9j3Spwg+VUCH96Yy7YO297TIQ/zffvut1coicBoEuoOeZqmO66hkr4djfW5jdvOd61/Trs3K6xE4YgLgPYK07H0hQVvfI9HhZ/7OzwRDmyQIjDMZAG3u8zEZoO4TAZPj61emGorAfRBoAnAfXN9Gqyd/AnbDMwFwQ/UnV26itPtfujpmr3wboB8Q6BETgPG+8EmSj+jH/j11SZ37M+/LTDBMBNDvxwIkBJJ9vg+y/IBlq4kisBuBJgC7oetEEJD0+ezTzZCNk02VTdMN2w00N9Us79m4mdPrdggcNQHgPoFsIei998ncPO/P1M29ik2kL+d7z5o0eA+CHfe/TwR8L9xudaqpCNwege6gt8f07TS66RG4G+Ul6SNXk4JLY5f63g7sOwZ8xARgvEcgaskXf5fujzX9SfaMV79zMznw3qVv9I2lwSevLNtWWQSOhEATgCOtxgF8kczZvHzhlo/1pzY1+nJDZEMdN1E301vLA0D2Mi6wtp5wt66T85Bc431iHYlux2+x4xylwHv/0S5ZO0b9kjX99ikds0emDsv6pfSLsdanpE/SeHLAS7ymxratCNwKgSYAt0LyxHq+//77T+8lehvYiEwKaHNj8udObrjKPZvoNXP0s/J6BFhbSWzrmjgPyeV9olfWkeh2/BY7zlGim3tT3Z7OkRI+0s/sbWM+L8dv8WFqrHp5D1hmXF68X/ivhr18n0n4+R6z7HvMOZVF4NYIfHmX3lp79R0eATcbJQ5zGmGDys8xKecGNm6gbqZuzn7xb2rDvGXb4QE+kYMQqeu3dY2ch+SSlA3fOhLdjt9ixzlKdSO5Z7mH1T/qhZglZ+ZbHsftresT8y1jA7/yfYSvkj994kI77y/fh/T1KgL3RqAJwL0RPrh+Nxw3pXwagOtuUEraxk0yH/fz7eysj2NvXT84vKdyjzWWvLauk/OQXHm/ZJ12dDt+ix3nKNE79XgdwuWPUTlOqS2fVt0iCfBeR5d6046JMb4mqaffvOfG0z7vxxFDdPQqArdEoAnALdE8qS43JjYcNk9PUm5A/mU/N25IftxU3ejc/Byb9XuUTwr5Id1mvcd1XbtmzkNyee8YqHXk3nsjbaDDC7KEQE1iPXEjefkRQBL0Lch/DptvvvnmiycMaTcTbt9niZfvP9qMwzgri8CtEfjpXXRrzdV3CgTcZJTptJu25O5Pptj4bEO6mWY5f089t1Heoj39bfk6BFhvSXbr2jjvGQlARu1JOu9nEljuTX0ktixvjXUc73uB94fvBeU41mQgfTbBVtLHWvj+y7EtF4FbItAE4JZonlSXG40nEupsRm6SbFqW+ROslN303Eztp+7mpxw3wVvWTwr5Id1m3XMdt6yT85Bc3lMGah2JXsfvtcE8Lp5e+QRLOT4J0DbJQf4BIR/fb/FhHCuhGw/vC234HhnHqEM/xQjJe5B2fc6+lovArRFoAnBrRE+oj81m3HDYpCBwNjY3MB+luoEh7fPpQJK+m2KOv3X5hHAf1mXugb1r5jwk13g/WUdyDzh+y/3gHOUI5Hjqt9/EgLqnbO/XLfbnxvoeUDIu9due7w2TA/HCRz8e0O+Mx7bKInBLBJoA3BLNA+piE3EjcSPMk74bM6cjN2c3utywbNsj3ezGubc4gR0Q8tO6xPpLruNaLdWdJ6F5XwmGde8xxy/pzX7nKNV9jUT/eJ9Tt228d+2T1NO/PWX1j7iJl7FZ9yMO6/ZXFoE9CDQB2IPaiee4gWQSwM+PPN2zEUnMbrR7NrapOWyenoy0MTVuS9uJl+JwrkMqe9fceUiukaCsI1lfx29Za+cobwUgPnBvojffB/omSVtXOtb6XondTCjEivhI3vMXAybzt4q9et4bgSYAL77+bh4SPuHyJMBNxpMOm5Dk7IZn396NzXlslLnBSf630P/iy/fQ8LgnJFfXbq10HpLL+8sArCPR6fi1+nOOc9V9jcQfn4ylLyYEed/y/qCO/WzPeXvKxpMJBTHldwTy/Uu7ifw1sXduEWgC8Gb3gBsxYedm5YYm+bsp5Zi9ZYleqZ5b/FLgzZbvruFyb+xdd+chufI+yzrtrL/jvRfWSOco7wWGiTB2tOX7Qj9pN5G1ba9El+8NyrwXsUcZ4ufyi4El/nut+nvqbQLw4uvuRswGwmbCI0Q3KjY6Nhnq997gsOEmp9SPa+SLL99Dw3vHBICYJVnA5v3hY3bfG9yf90qQ831n2cRCif289DH9zv6Wi8BaBL68s9bO6rhTIcAmx6YB8bKpJAG7sbHJ3OMRp7aQvtzQcoOjbc/rVAtxcGffMQEYlyRJFTy8f0kGfDIgUdu3577NOegx2VD6PvUnhYznSv9G31svAlsRaAKwFbGTjZf82UDYVNxg2HTcyJS5KVHOzyTHvq117TKPi4Rkq46p8SdbjkO7+44JgJ+z+/PAXCDw4HXvL8nme4N7fHw/kqSbbPCe5GMAfUt/Wy4CWxFoArAVsZONdzPx9MIGkydv+yVXNhpe+WTAvr3SzUvo/Bxzr76cp87K6xF4xwQA1PwSoAiCA1eSrKSb9573dbZtLfs+MwnwvYlu3pv2p14TAv2tLAJ7EWgCsBe5B81zM8Kc3+ifMu1Jhj7KbiS5cewtuwkp0WNCkW1j2U0Nn9hkx8eXe/3Jeeg2oaCsDSVtvdYh8K4JwCV08v1nOe8/ytznJgOUfW/Q5nsi25zv+8P6HokNn15wz/v9hamY3COIg9elsVPz2/Z6CDQBOPiaejqR5HiT+0amz5MJYdCXm8h4us++tWU3MDcrdPq5pPoZkxsgut383DSFGR+NSd1rfZkapy42QcvaxFav9QiAm+s8hfWlNuchuVwDrVtHosfxl3SOfc5RqvveUqLkfqJsLPhnos39rl/ZTpn27PO9ohzj3FrHh/QLPPSZcu4X98aq+s+FQBOAE6wXGw5vYjceXJbsdD/J/+uvv/4iEdi6oYzjJXpOMW5aSjY2y4wzGWADkoA9oZjE6PNoZ08dXW52SG246WmrchkB7q8kqi3r4TwkV96rWacdvY7fa4N5j7wyHsved8bA/W9CwPuAGGnL94flW/wEFrvqo8z7k/s+3wP6qPQ9CXa+Lx+JY20dC4HHvouOFfspvPnuu+++8FPi9w2N5M3PhiNRuyHt2WSde0mO/90pY30q4OboRqOfBkG/fZdsrO1DLza+/fZbTVTuRIC12XvPOA/J5X2gK9aRrK3j165zznGuuu8p8/3mfas96ploGotPtvST9vG9mfE47xpp4kFCwIvL9x4yy+mzsVS+JwJNAE6y7m6gumuWz2bj54tuIGw8nkBs2ytzY3FjU1fW3SjxT1/ddL7//vvPU4n+swmp5xo5tSlrN33SbuU8AqxbktaWdXEekst7QGvWkeh1/F4bzHvWRbLpPabkHucirpHsfQ/hM4ly1rfEPzUWsud/6KSP92O+J/HD9wd+Wva7RH1/POsOOo7d572LjoPB4T3JpwBm7+MjRDaefPNPbRbXtOWGbZnNh01m6mKjx1c3SMawSboJsfmMicse/9QvwWAny1O+tW0aAXBzbbeuhfOQXOMaWEei2/Fb7DhHOR3F7Vt9z5F0e78psWYyrmVi5L2on8RoUmAb71/eP1vivzTWJ3DoJ8HQDnPGC/9cj7Gv9fdC4Od3x3vFf/hoJczR0XEzyM0k3/zjuD11dbOpWc6NxZNEbpT6jWSzzA3TcXt8mZoDNmxo2NBu2huxa30aATDce+84D8k1Eox1JGvo+Kn1nGtzjnI6itu2ej/pP/e6n51Ttl9pkuA9blKunIttbzuJxVwijU2fDqCfi79pwEU8Y+Ly0dF/3gqBJgAnWG42E96wkhpvZt/0niyQboz0J1Hv3VyYlzotJ2RudMrsMzGgzf6M49abInbcqMdy+tXyNAJg5xpvvWech+TKdcg67eN9tdZW2mDOoy7JXYndJM9sn/KJex9/fU8Sx60+BhATMUy99mnXJwMmMFO+tu29EHjcu+i9cL15tJI/inlj++b2jb9XTukimUhydgPBtptdkvulYPWbeZKCycBen3OevtmGDTdn7aV/+k+fftBvPPjLa2pu6nnFMjHvva+ch+Qa8bOOZK0c77qtkc5RnmkNIF38lqDH+zbjN6m/NCbHXyqPOnhfq981mVov3yf0+X6ibLvyTGtQX3+OQBOAn2NyqBbJSCKFqHhTj2/sS5vAUp+fHzIuf0KYm5Wg6Af13EDsn5KeOJjrZsIG4ka05N+lfsnA0w1j+XOpPOpM/8DNumSPr/jEKzc0y/o6FdMrtoGPeF7CfKrPeUgusRYn60jmO/7/t3e3ya3cuhaG/9+czH+eyRnArXdXngSHadlSS7Ylm6xSwE9wYZEE2C1550jXpTpjSLqfWbaH2O71O/t6PT/P2MrLo854fK2Xehjirovwejar7xw4K51hefY4J8/M/8b2NgP7AvA2P1/e2sGcyZM5J+ggn5WC8NSX46ncR/K03OHnALRdI10C6pvjSMdZzHMcJ8mOvhphS22r04Kd01MOVw6aUzPuGtu+S5+4wN3k+Jq8cfbM5DV+lJPp0/8a3foYQ74K79nM/omZXV1Y26vz6Xz9ka++t8q4wldjfXXo0l9b86745uWXD5qXBP5g2rPzr8fAvgC8wJp1OAtIBad5cG91Bpf6u1R4GuEkmrODLijOIB5tq9M4olKg1TYdh3kv4bq2noNzCZh6XRCaP3tyYuyB/9KfKWqH/bvL7MXltdzrZ1yytHKnnGyM/sZfI40hX2E9XCT96V17T0C1Dy/Zbu9ear+mno7OhDz+yPR0diqX/EkjnMn972y8wm67HeO+ANzO2aeO4EA4UIe+IO1AqzsjOQG6ugTkDDiM5mlugZvTWi8Db5HC6bGhvjlEc57Bbcx89a/ORSDbzFGeQ5tYYSLrw8aj/nPsd8vHgf2Ay2ulcckSPnGknEyn/tfqn2OMpfsV5LwIt6/sLXvNpdvZY+Mt/Bz1TY/zoL25/HWAeealGZ9hhk+ds1yZb9K25esxsC8AL7BmOU0Oo0PsSV1wc7DPyvRwQFMH51B7+ZlWxzDb1vzE7yJRnznXPfmcV/iS0w5OLQc4nWDYp/NymSHDFuY+PyllrzW/dT2Ms09W7pST6db/lnmMIV9hbeaecmacZTI7nIv4aN8+6mynj79I7/xqIR77OBsu/9YkXDBav+pm/hXWYGO8zMC+AFzm5ilaOAYH0WGeB9mBvVfmdHIGOYoZPNPLIc1/lIhDe4uoGWjl2dS4ezH3/emRDk6NrE95Tq+vUo7wVxe+n+jksllwPeL0rTrjkqWVP+VkevR/S+faZgz51r571rb1DPiuHT/tvT7Z7gyuPNxSdiGeulzonWk+Jb1xu9Zbz3yQM8MfPSvPG9d1DOwLwHU8fWmvedg6pDOo3eIMjvo67FOvumQOgcPNichHyAzkbxHEadSHwysvGBzhuqUuXGGF21g81T4dYO3TtrDkmCfO6ibvlb97aj2sLw6vlcYlSwIazpStuf7X6q+fMSTdzyzbQ9nM/qMzo40dyrdw81bf+JrnYwZ8Z6aLAl6djVVn+GBb87Bv+VoM7AvAC61Xh88hXQ/nV5U5tBnYPeVErXY05xALtDPYws62HNAM2JxU/QT18p5ujD8r08+xJX1gnq9xv/Ol4J79Ze2SJXziUDnZOul/y5oZQ9L93eV6HnDmjAjoeKleXt+zcp69dLR+znp569oadE6Uye++Nq9u374AvNAKdqgedbDPOoSjcTmJUoHfwS9QugislwCU90PA+gnq07Z0KpP6hWF1TEe4rqnjREl2kAI+G9iUlGfPq8t79pc1SpbsA5woJ1sX/a9ZI32MIen+zjK++hR0fd3V3rdfyThxIdb+iDOC6y4Z8vPf2eh8OCPWobNivdVt+ZwM7AvAc67LIaoOlUPIKT6DDFOfnuoLitMhzCf9nFjl7Jj19a8tB5ZD86eO07ZZl2PrMvAIBzfnmPm5AOzx5DPbvlP+nv1lXyZLawBQTsaz/pPz9/LGkN+J+2tscWbwtJ6J6uf/ZGhemI25VTpjdK1fFVjXP//88+91d1mG9xrbdp+vYWBfAL6G91Ozdtg4v1sP8kf1hycHUfDOYUgFTA6CU1AuqLosqOsf4glnOjmciTuHV705Z9vZPF094XB2U5fgT2ZHdrGHrd9B3rO/8JgsWVO8KCfjV//J9Xt5Y0i6v7MsiLb37D+2Tq46d94EVN8+PtrLc8wteXw7k3Ou6qTOs3VWt+VzM7AvAM+9Pv+DrsPlMN5ygD+z78Q3wQuYJEfhKYHMidQnB0bX77///itosINz45DUn5XzSWo6t+rD0HebqwPONv+4y7TzlfP37C9rlSxZX3woJ1sn/W9ZM2NIun+KdKF2hjozc+86F/bwI87HfPVvrei1Dr0V6NyWWt9wJa35T1mfV7RzXwBeaNU6UA6dw/jV0veSOR3Y/CgpbAJn2L1C58C0WQL/Alll/246nZybMid0r/2w0st5mm/qz4acG2cH93eR9+wv/CVL6ZpJORmn+k9+38sbQ0793zk/3zjFn8tyNsvH3dFl4D1Or2l3tpN+Z9C4yn2cRWvQuXbW1W35nAzsC8Bzrsshqg4/53fNwf2KPhwEpxHevpf0tJwNAmj5ksC/OrfKLgnpSaeA/Wjbpl55DrXLACeXLK1Yf1W++H+y6ez+Mi6Jn0lHutW3dvrfso7GkFP/T8g7C9nqB7Q4JeOmcxKv5C0cr31d8Nd650F9Z6bkLMPzq3L/52kZ2BeAp12afwO7x0E7qI+WBUdPywJn5RyRT3P68VBWCQbToXkrMNsxMJ9y0mWeRzg42PDCFrJ6Aaf55CdeOF9d3rO/8JIsWWOcKCcnp3i/Rs456v9TEu48VStnv7Ohrbqz/F5ag/Z952Geifq6BLgoWw/neuLUtuVzMfBzTtFz8X4KTQeKE7x0WNd6h7ag6cDWZ+rx1F5fwbX22WfVe0v5yHlEQI4imzgxbwlWcurTWwP9mptd5TmgiWnFz/a1fo45k7/k5LKtD8z1U7fa9yzlMJ5dc+OSpZUX5WQ8638L58aQz8LbR+OIs7l3vEFrXvsrqR7XeI4vnFU3z/gt/F/qSzceYFLe8nkZ2BeA512bfyHrYDtslw7jUb3gV9D01KyOFFDpT6o70nlLHT2eoNNd0JZyGJxWrxDLe8Im61u9T2W2hKVLTP+DE/inXdPu+hrn4nOLLZf65qDDGr71IjOfzqZznLbh4itl2PF3yc5L9cYlS+maSTmZDv0v6TuqN4ac+r9r3t6Z+6b8vBDog4PK9lYyLr3K71zgzzk44vqWOvoa0/qGreRCAteWz8fAvgA835pcRNThmoftmkM6g6/+nMEMgOUFzeRsM+6MND85dbCFs5qOTF1kuCDMIFJ9fXqaWXWzozZzNG8XBE7PU9DEcyaf/j70zsXLEXKC/jVBDpKTnP2/On9mf+EMz8mStWKTcrIx+ht/jTSGpPu7S3uoc+DHsTie+6jzE7+4rhyv9mZ5ZwWH1/D+Xp/002ct5vlVt+XzMbAvAM+3JhcRdbAdtPcO5do+nUBtDmiBcLad1b/ON8sz2OaAOAxzeYWf4dk4/0lRgbO2+WTN8bGj+eY8LjnVF/jXC019zT+xnsnTQ1pAjhhG+NVz7Pp/tbxnf7E9WWIjm5STcaz/LXwbQ9L9nWV82T/sLLD7sZ09NC/P9YtX59qFGNcuAWu99rMyfeGFzZrDveXzMbAvAM+3JhcRdaA4v1sOqQPfWJ8CqE+6ZsAsINePA7llrrWvuTkb/x9y/dhDVr+mHOC8CMx8fb0ejZ85n4uGuZK160PO9lvz+DQOj10wpuOe+TCv5dXmryif3V/Zbv2SpdX5Kydnf7xdI+cc9f8JyUXXa//JLU7tpcrl48bZxRl+5/5Ud4+k31mCN5wuvD9hnV7Vxp9xil51dRbcHXAH7tpDK/CuMtUch2nS6SDfOs8lPBwRWb+CY3jMZd75vzjO1p5uODmOxSvQygI//El1E483DOtbgNnnbJ5dZHrkzTe59sRWHdsm/q/Mn9lfeLNfkke2sTXZGP2Nv0YaQ34lV581d3zhrjldfklBNtl58haMdO4L/PZlXNd3nr9r+D/qs56tzh9Mn8XRnuc8A/sCcJ67Tx+ZI+D8jg7jpboZWPVxSNNZMBVgM6o+zXNmLvqn9NSfPg5Je3XTMZlT8Ayf15vrhcUCcJDThtqmXvNVFwbzqL9Xcrg5RE6xOTjl8qUwsmdeBtjylfLs/oo7fLLTmrBHOTn7338qDhkAACAASURBVML7nKNxPyXFWXvf5Xa1Oy7aZ/Y7nia36tqn8rP9nry3Cukt8SeX8K74d/nrGPg5p+jrOH7YzDmCs4c359BY4wPFKQNYeQale5zCpbGclCcQeFwMlI2v3Jgc4MQ7caqfFwD52tKV4zM33Y94Apo6XFrSv85lTlw/o3OMq5V/uN+TxiUv7S316dL/Pb2z3RgSl99Z2sdsbN/Y+3iYfLbv1Nvzys4YTtUrn5F0OAfWOHnpws6WLb+egX0B+Po1uBrBGQftYHa4PaVWJ3VIORmORUDN2TTOIecglKfu2jiY2vus7cbfKmcwhXuVMFc/HY987c0LOwmL4A3z2q7fGTmfuuiHa9rBBm2VXRTWtWmc/lPHPfn0nbXbuOQRNliTcx1u4XPO0bjvlpzD7PKKH5fxNjm0j27h76P7tj4wfre1+a72fL9T9F1X6i+HzwmeOcwCac4jZyO4RJmgg755kF0EvOprbpeJ8gL/rDuD72gMnb1Whx/ebOA0k9Np1mcGzWnr5DDsnKl65SM8j6hjR7LkK4GV88p9Lq3Vuma/lN3xn+bCwa12GpcsTVtmufp063/LPMaQd5j6NEPbo/YpaV1bd3VkfM39cwt/H923dVnX/WmI3kAOGdgXgENanrPyrIPmMDiAgp6DmpNZA1B1fWbKAfWZugrOgiU5230Xbt4zkrNvrMsAGT44BfikfO3ZyVa/e6g+fbCS2cCO5p1zn8HemPS5ONHnwlR7+eqlfuTIpupmPruObDH2XpluGG+11zi2wAmTcjLd+t8yjzEk3d9JOotz3bPvFp6+qm/rYp2/05p8Z1v2BeCFVrfDxflde8j1J43L7AKKJwvS00ft6mbg9JRNT3INnALq7HNPfgbM9MxydrHlV2YEfc4oyaEmszs7q4fLVwCVw3/0w0l9z8guLfNC5BIzdU385cPHBmuhPskm4+6VzbXuk4nvrbxx1gNumJST6dH/LZ1rmzEk3a8u24sFfmfPuiZXDjpr9g4e1j5fVQ6PdX71Nfkp+PcF4IVWusN15tB7qhWYBbvK6czxzKfLHI+DnPRBVX1LYaGzOeQ98XJU9zgkOthN97wEpL/kclLepWUGTg5WHZk96Vh13oPbWLiVj+apT5cDfVdbPBWqn+XqHpVaZxgm3mvyxiVL9g9sysn06X+Nbn2MIel+ZWmfThs6f+3l7JyXRucrPmY9fr5ahtc6T3t2/nkZ2BeA512bfyHrcHF+1x722X86EHnSZBxSc83DXJAU+ElPKiuW5pzzru23lsM43zJwfl0OZtCuX0FdYGdTOGFlU0F0ra8tbOYzz6141/7eJmQDvDOvrnEuZ9XNBL+6AgRb1N0r03d23YxLllZsysns1H/l6q2yMeS99j7T+PZs5wo/k4f2SmVnlf0ux7PvV+bDZZ2fiduN5TID+wJwmZuna+lwOfzXHvT6H40pwHAo6aqPxBFVXp82K4ejT0HJP/tZ3/QIdukTzK7FetRvBseJdwbn6Qi9IZg2rE7Jm4AwayPZEZY53xG2a+o4b7Ix65pkY3Xz30swd1jDVoCA0WWADPMjUvrDcY1dax/jkiVY4VJO4mDV8V55zlHf75DmPrXXk/aLfT73+My/x9lntrc+1vk7rM1PsOF7nKKfsFJ/OVVO8JaDzZk0RmCZ4+kkHWKBsrJ8VGtHu0AkSHFac45H5LOjD5zZIj9trE59DnZi9nYgzNMmtsy6R2CGI10wuhgdrYULzLQth1/C87oesN8r0zvx3mK/ccnSukeUk+nV/+wcjfsuqT2HE3ti8mPfkPW1h27h76P7htk6f5e1+e52fJ9T9E1Xaj1QHeLpCO491KuuHJAnEXMLolEsCJHVCarlG5NDmwEMRk6N/sp9YOD89H+UtDVcUJRJtpDVe/ORPTMow8qWifGSXbPPrXk6jQvbXI/w9VFnLbJl2sPWt2R6juwy91vSuGQpXTMpJ9Oj/1s61zZjyKn/GfI4Z2trou4IHy5WO8+U4wQvc8/M+qnXJb329rSPPpfGaT+SjWH7kb277vkY2BeA51uTfyHKicyAJLgKTEeH8Za6Dm5O4ygAVz+TA34puHiC9lVBODytNA9cbFBOTsf122+//d139rk1Px0ZOzjlbPHDQYGzPjNfeb3QpNNFYOL+yFezrfXkB85sEPztEXbeKtM11+gWro1LluwTGJST6dX/7ByNe4Zkv4fFOpRf16Lf1mR7/dt/t9j9Vl9na57d8jOg2zdxfvR/xmy/zzmsDTnb3srX3zo/w9psDO8z8Byn6H2cP7bHdDACU4fw1sN56eCmZ+riUDwhGNcCTAdnQTzlVJ7/o57KOYMwc/rp6jcCM3iWz0HN4MmZzX5wnJHsow920mWGfZxY2LXVN6ceVhyFmU4S9nCuHJ7Bnr6pc3IFP54rl2eHH3Tq955sLK5uxWpcEo45H06T6db/lnmMIaf+r8zPC2U45qVy7p/asrf1zAZ23MLBUV9nJ71+R1K/9GtzCTC+/Vqbdalv4/W3n/W/RqaDvq9cjz339QzsC8D1XH1JTw6kg+VwdRg70DMwXHNAj/o46OmS55g4Bc6jPjAIMkjh9CqXnxcXfcw/9atLcl7mg2f2uTUf5uabwdibk7iduKdNsz78Ll/Z37hwwJeUx9mtON/rjxP95jz4tTbKt8rGWxvzXCuNS5ZWLMrJdOp/rf45xthb7fuI/nNfpN+ly/5nd21HNtxi/1HfuBC0tXdBdZaqs9/L6xsebyNgM/6sDMu0N707PTcD+wLw3OvzCx1nUoAqMM0DffawGtehXYPLLQ4kgC4p5TnA8oJoTqE859DcAjJn7gKivGKC9x5JdzqaL2e4pmyZTr2yv3SI/3lJaF3Sk74uAPLWh7O9F7PLRZzMy0Z6vY0oH9bw2S/4Xm28VK7/5OgW3MYlS+vcysn06n92jsY9S8I3PLNc3j6wL9h/hoOVL3tj3RfmaE86S/WxDnMfh9s+0tf5XOd7q5w99ONiy+dm4HlO0XPz9KXovFoHIqcynclbh/KaNg4qZ+HP+BrXgdbGMdBX39o4Owc/2Wc6GH3C77vR6sxBJzmdmrp7ZM4N/iRnN3Xi9pKcl5kuCOyt/9RTPt4e4dzpSrpcmGu1Ic5aj2QXgYnvkk1rfWPO4jYuWVrnV05Ou9hzjZxz1P8ZErvC4uJov4fROs31kyevsf3aPuZbA3j45pnEnUtj+huDY+f+2nnr19jJhzm2fF4GnuMUPS8/X46sA1pKylfOyTzCgXAYU1dBpMMsEHMG1fVqcTqXxpU6+D6/Ksb/YCistXmSLj+dEQzNJ1BzRLc4oKO+bOGgkuxqLraRYYct2celhV1kbWyqLt0uUOFn1xGua+vwYH3SqQ5f7KmeHe2VeL4l1Z/ua/HpZ1yytM6tnGyM/sZfI40hb7Hto/oK+u0R5zN8rcPce50Z58YaXWPzNX2ar71sj8wxzif7YbQe6udY/N76kNG4VS/9Wz4nA/sC8Jzr8jeqDhQnU6Wni/Id5nnYz+Y7uDkrgWR1UBzC1C/QVWdcmAqK6xPy38aMrwjql20cBt3N5aPuHjl1ccrpW4PztLE8Rzmxl59rAbu+7Obo78E9x1oPPNe2Omd9pm0FhVtS9kweJob38sYlS7gxv3IyXfq/p3e2G0PS/dWyvSxNvPIzuM59N9dT31vlqqO57AWc259hlNdWnTVp7ridn1vwNG7qxcmWz8vAvgA879pcjaxLgcPL2XCS1aubzoKTuOWAH/Wle+oLOKfI4VQ3Ly9ruzZvAMzFGcFunsrq9D0jVx3ZA8PqzGC0MNM2dV0C1Icn/DiqfJSfQUE7ecamdUycTewzP21sTSZGXK/6ZhnOaeel9U+/YIPjqeutvP08MeH8Hjntl3fJs0cnX81VP30r1x52eymsE+dbdl3Txnb6535pvHYStol75rXjrbcXE//UeQ2+OTbd9v+c01xbPhcD+wLwXOtxMxpOtYGcapKz4Ii0dVhXB3LtIX+vX3MVEHJEJY6AQ52OpzbtOaDs6OO79nTQJch8FO7mih/zrHZO3Dm16djKT1ssIDvSaS046Mrmsi69NZDXT58Vzy1lOo0R1LLJVxvzh5vmvoVrfb0VMgeerC1uwmIeuC7J2c883n6Yh94zEkYyHeltTWcwo3v2q481Ii/ZcW/90R6aaxtPUvjtWWdPW/vSuUvaA/BlR3pxrP4tqS8M6fUx75bPycC+ADznutyMqoPu4K+HlfNYndR0IOuYW8r0cNbmq8xhziDDAWWk9lnH+OrgcJFJJzs4Hn3OyPTB3XhBxmt8c2QTpxq++Iadk+X09EsKJo3nXJunsnnxlTQ/Ts/YdDTmP//5z99chmlNsIcJHrYf6Vvr4G58aa7nnM8466n8lpy81c/6rzacLdub1oueaUOB07pWX35itl7WNO7wOPvdmk8fnemjEwckzNMWeGtrDawDyb4w2e8Tn3ln3Zq3R6x/ul1+YdryeRnYF4DnXZurkDnws3MHu0PYAXZAO7icRXkHdj3Qt5bp5JiM//333385SI4xfILm6oD+/PPPX/A5rJ5K5Gug8xqHpO+1Eu7skDcPOYNVeOAvH87Ks251gNrqG67V2TYvvq7FfW0/NujfelgzAWD+lUn9pr3GXZKTt/o031y7LknZX5u9cIv+OW9vGObYX5vmzv/gYGJ2oVOnj/VuvbIbtxNTazvLE//ZfHZbs3TMsxtGHMOZhD3pgyr7Ef6578uv9r2Fe9UBQ3Md+SYYtnwOBvYF4DnW4S4UOYCCpidShzC5Ht4ONwfi4K99zpRzBDn4NbjRxYEx1KtH5WSOivNVP/txTAIJ52OOMxLuOTZ+/EMqOAp/83Lu4cM3rMmJt7K14JCry0bz4WWWzWkubWdk9jXHylU2Vt9cpTUozIvjNfOGFW52W8vGawuH/XeNXvxMLuTXi9YvQ07+p3Wb+qxj69Ya9pkcsocN9qRycvaf9ffkzWO9cEzOPaluBmI2TgxsIWfbLfmwxZe/jLH3Ty7JHvYJDOwLwCeQ/JlTcFzr4bvlIN/SN6fRwZ/OY14CauO00ptThI1j4pTiicNdOWtMDi3H11yPdK4CSsHG99iw4mLaJzhmF0ecZFfYy7cWOeQZ/Kddk7dpz8yb/1Hy6DKQ7jBmQ/nm7zNtvjT/0f+zgY3Tjmyd5fTdchGov8uAsea5R2b33H/pmutYeXJRft3feJrrOffRJe6uqW+u9LM9vPZTOO2zcK71k5fOTh96mhveWZd9nYd1rd7COseb0+VDecvnZGBfAJ5zXa5G5WA3wKHzFJBzEKDUdZA5LPKtw31N29STU2nM6kCq16adkXC6vFTPmWVT7erYOOe8BuOlPoLQdGLpDn/Sx3h2uTRUn5PGczjh/QX6r6drtlkHdtSH7uaCo7z6R0i40zV1tyZxsK7N7PPe/I3FB9kY+fn7g+wLy8Tznn566jfH4fceaa3I9l1rk2ytJg/ZOefXttqjnnzPvrfa7Yf6SM4GWb19ddTHxc7FNV2T08ra5nxrn0s4JydhwuXc43Bt+VwM/LOrngvXRnOCAQevofOpxqHkMJLzoF862NfUC6D1nUGE8yPpmn3UTVOnDbN+OpMZTOm4R+bAwgnr6vgmVxP/HNP8JfhdCCZu9nDWpPp0TGc68/fYxy762UDSzW710259Vlkf/ekPtzo2KNcHnlm36j0q09Wcj0ytg7Nh/XAxbWp+GGDHkXPANuOO7Li1jq3rfqm+OpjtNbYI/BN3c8Ooni1wZQs71b0l9YXT3lfe8nkZ2BeA512bhyDjHCjrcHIUHACH4JDn1Di21TnUt492Y+6RqwMR4Kcj4dS0KWdX9kw8Mw//rAvravNZ/LA3Xh7XSU6bnG3htj7a4b2Ehx3NNfvKVw/HJR2vVJ8tbA63wDzXf3K65uMXx/Z9+6rxU4e9NrnB6ay7Nd8+m2typNN6zXPVEzl89ny2sYWc9tafjdXfivWa/taCXY1R15xhwOURxol357+egX0B+Po1+HAEHcoCjIM5J6yuV9ic1HRQ8uTqILw2XOtvKXMeyTBwemROxG8Fwr06FYGztsYI7Oma39VysmGb+VuwXuprzmyQr6/EKcOaQ59roVydNzdhxE26CnxwC4LVN1+f2VfeU+kl3K9Qj89smvbb0zi+VgqmcZ0Oa4OL9voj9jV9q7R280xlI9usu73CLjgry7dXsqEzMc9Fc6aHzhXDreX5O4+JOz3Wp7nCPHHPPDu2fC4G/vFSz4Vro/kgBjhAgaZpcig5RI6hQ+6gCya1FVA44llv3FnJiTRe0A7XDJIcdvU5FnagyZ8SVl6xcYZznrNYL42bzla++eLxKAlgnOR04PpXJ2DQSaY3/crh6i8X2G7cJbyvUm/NsnfaiqP3pMvj3D/t9/iX4iK+7PnK8YjLe7iyn+lMsilpnTpbzT/3desv2MPrTBztl6l7cnUPflgnF7iqzTzlJRiVt3xeBvYF4HnX5iHIOIoOpTxnQs6J6jMPtfx0jjmU6jmvexwMvRwMh5POnCdnUqAM73SQ4V5tqJ8xnPj6JBz22th2D34chJsN9M0yRz4xWw+XF7Zko7w+6WyuOQ/8Bf7Vxvpqh+cV5dwP7IlDvMy9e00er/WNj6N9YE8+kq85Tzaxi8we2OZeCee8rNvb6hsXzvnWonMTV3P/nbUFPpz489ipr70Gu3VZbbhmbXafz2dgXwA+n/NPnbED6TA6pAUYf6urzgVB3w64w1+eM+EIOOPpCM7mm2edy3x0TtKyqU+Yw0/OPtlYfR/4YafzkTbQmewf9Zn2VOdJcPI98ZavDf/aONTaVp3pXW2YXB71nzhfJR932cLWS1zhbEp8uxjGJ7vnpQlv9sicT/8z0gVRgG5fW5fy3gCF2X4t3/kMK/ztC3th2pf+eVZwdAbrpTE4SXfYzVcZh2Gzd2HOnp2em4F9AXju9XkIOgezAynwp7iD2sHlhBxcsnGc1TzsHIK2S47jmvqpy99OT70CZ7pK7zkVTpMNCGwcPPPP0tTdI9mQM4Sd5DTTXz8BIJxsmU941gTuZOtjjSqnQ2BJL44443tsebaxgg3+4gFvk6O38jhtTeLN2rB15c2crZ0+98j0HOmCOXydNXt27gd9VrniyQb7MLnatPa/towrco7Lpriab+WsDVtW3Lv8XAzsC8BzrcfD0TicDmYTlC8A9ZFcEjgj9ZX7p2I9wXToBZ8jpzYdxDX5HEtOhIPJcdHLEc/2cGRTuHzCWl6aduVMtVVPd9jovwbnpT500JvzFZA55IlfP3aHOVytibWa9szAX76+2ZNd5p7Yqmte88y2V83H5+TBXiat+5GMqzjL9vYtXuI/nuy76gVNvOp7D29zP7vgwtll/JIN7YXatJPsIO2xaUdtYVd3D366kpOv7JrJby2qs4/nms2+O/88DOwLwPOsxYciETiaZB7M8gIkJ6NcX3lBdzqTRzqY1em6ZKif81bX3FK2SeFlx7zUqKtfefqn3rN5GMn0rMGkutleXoCBPTltUR/eiV+/bO2T7uyZ+qt71Pqk6ys/AkocWFPcvCcFSOuBq2mPy211OHvk/khvl5jWCn7rXJ2kTZmsr72SrpmvzLaww12ftV99z3zomvrCNrFXnvinj2HHls/HwL4APN+aPBWiecjlpxPhcMijtuo4Ys5k9rsnjyzYKsuT+nBK1ffJscLFiYZl2qIdxpxsnzXYar9V0h8vb2EXBI8CR4GRc8avcni8kSgvwN2K857+YcEXXDhWP/VXF841sZ3UrhwP1hyvU+/ZPIxkeuyXWbfm2RrOMM4AuWJXtkeVs6f5smfqr+4Ra5kOeqxJ5bD7sLdyCcd4h3XL12NgXwBeb80+HbGDnoMtzwHkGDiHJAeSc+SsOBjl+slzovSckTml9JXma8jpbDnVWYfEbMkm+NNXPtyCCLnim0+Oa9stZTYYg98whh3/6pVrlyfTAW+8cO4415a0Xub9CNn8E0drjmOYZvv6FY+gvtreWrM5aY2T2bFyetY2GGGONxcqXE78+rG7NVq/0w/vxGyd2VA5e48wN1fzmueozz11zmTzNEefvrpwtsLlHFmT8O70mgzsC8Brrtuno56HXZ4TO3I4OY7VUX3k36nnuApoBQxpBs+wlmY7x5w9tee00yFoZpcAUL45OMZZf2T/LXWc+bxQhFVAgDnJjjBbh/rOfOU5P3s499n20XlBMgy+A4enuQXT8iW2/ir89Z9pa/bjYPYpH4+ty6MvNmyIP9jJ5pSvX/NXDmO2WJfkxC6Itsby2VA/+uwHHM31a1775p41NId9na7JH67D5S2UfaltXYddfh0G9gXgddbqS5ByThzaBDGd9XQaHBNH9tF/p86JzYAycU7HW54Dqw8HXZ0Ay6HmcNkiCGirftqs/oxMF67K54ybr7zE+VYOZz/MLHHCtcsbk6SXTG92NccZrGfGNLf5G9/c6/wTs/WaAXS1zbolC5BTP4xzX6h7hDzzZ54um9mZXdM2dUn47K32QHVkduLuyGbjz0rzNH4mZ4bE/+yz86/HwP+u8uvh34i/gIE//vjjX8GGg+NAOCllDimnxXGR2s7I9KdnzmPunFSOtlQAkfc60+VmUjgd28RDp4vAnG/2uzVPX+PkOX+yuUs534kP7vVyoD476//ZAXJywCb8zTUPlzVh27SFHTP4y7ff0kUf2XyPvOBYg/SzgX2zPPeSNYKVHUe2CajpbK7w08umowt0/R6xB+kwb3NK4WULnMrZNm02ZsvXYmBfAF5rvb4ErcOfQ+DUyByCfP1y6JWnwzx6hcmJPkrmNDlOkgNdSQszR+YyEG51OTZ5OnKUXsHmLMOt7V4b0sMRkwWD6s1RfZ9w4bggyAnDK6Bak2l74+NGULsX97Xj2VB/eyFcsMqzoX00g6X6+pWvnZ500v+RdlmX5pNv3vbCUYJznpn6tS7sTtpL820Fe+Zc5fsKxd5+pK3Z05zhaT/NvQNr2LOlcrbN+iP7d91rMLAvAK+xTl+G0kHnhHMQnvYFH04hkPrlRPrkuOYnB5bT40Rn25m8oGxsgSFnxqnNf7o0fF6dh3MGGQSrY1P9PvLfQQj3yoWgMNtmH1itTWW4y1sXsnVwiUvSK5jg7iOkOZLZYH+QYXMJC3vlmdhQXfvOeguSpHlwl3xUkJxzyMeVBCOOBUrtyWlX6zYvMHDONW4en+rnvGzFxb3rlu5Sdsx1We2a9pSf67a27fJrMPDPLn4NvBvlFzAg0JBBEHCmYzvK51ByUDk5jovDmk5N3RmZg+T4Gz8daWXzhKE2F5jsCDPcHF52htuHvWyBkV7lMxInMAsG6Z420T3rbAW42ZOca8U+dtU+9dD9UZJt8No7E2PclrQpqwvbUdBc6x+xJpMH2KuTZ0dS0Cdnm3Vhp3WgP6wT71wT+0LfuS8aA4v2sxJuvIcf7mkfu7Ihe9ikfsvXZGBfAF5z3V4OdUE3pzUdWU5rOjJtnNlsU3dGppcuDpfjQ+QMONVNB5fT47yrbyw96eWs52tcOLV5WjOudpj0PSvZsNpUfXWwc+xszZZLGMI5sconC1RznDxbs6O8eviSsMy68Kz1MJ7lZB0XFnhmoJ22TPzr+Mr1LeE5zDid9mgntaUDhjV/NN+1ddZGf3ZMO9XVp/wRbji3/DkM7AvAz1nrL7G0JwvO3Ot3jmr+WaA6soA5HZj6R0jOMFkSJD0FCf4k4tihDEt6OPZsKj+xV9beGA6bpOeMZEtjJTjJ6tdgNNtqn4F9XmRWWyZGc7OD1Ad/Bcry+G2+Ob+8V8ouA/TcI128YE1X+bBOvC6f2Suvb3WlLrHZsdoyy3ieARb+5oNjzq39Hjn318z31kS5OXGdPbD+Mm7/50cy8I/X+JHmb6M/g4GcznQ85uTwclDzKX2+6tXnrMzpCWgc4Rqcc8orvhms4M3R1y9ZIukTbMKqLsnZz7y/iT9rl3FxlX6BZXJdIO3DFjaqzwb92UJvEu7y1iQu45F9s395OHCWnF+5NJ8Ab/5Zri49cz+sc9xaFtDDNn8Tkh3ZyBb7g2zcii186gqgffBa20xzvekM+8zfast7/bMn/esc2S75308rb/lzGdgXgJ+79p9iuSchT3cFGg60POebY8tJCSC//fbb/wSg9xzfe+05c0GsvoKCceHIaZb8HxPDKXhWPx39fHoS4NKVjuZZHfC005xrH/X3SPMI6PgnJ2517CLNH74+1mTFa67Zbt7mkbfR0m9OdWQ8m/eRMszrWndRcxFgUzYUPPUNl30abvsAR4Lo7MOWbGQDbmbZxcpc2s5I68MOOrKxufuUWou59tWxBe4tfx4D+wLw89b8SyzO+XCWyZkPUE7xkY6RI1wdY/UCV3nt01EjiMMkq59Os6CgTNbH3OR09F0OZlmfe+T887D0zDcR4Qp/AQDGuJdPzryLWkEsnqxJPJVPznq8ZfcM7vRU/9///jfx9zwrb2Ge698c6TX3PdzQMfXTZ+2V4cCHPfoL/PIreXVJF53GpWNeNOnsHw+a8zwqv9rQ2liTcPVxeYE5nHM/qN/y5zGwLwA/b80/1WJPx03KUXKsScE1J1V+Bi/O+15n6XV7+gR/eQGtOQrM2itPzBwmG1YSs8VvHGqbetNFL4cdpkfYlz4600enIEDCKzAXBASCaefMtybZO/Gnj874KuhbT3NY09rk1z71rQ725qC3/Ed97K8ZpLOjuaUww60urPEl2dfxU1u8p8M6V2abNUmaX79H2fmf//znb87WPWqtj9aAPVv+TAb2BeBnrvuXWe0pcTrY6ZhyVpUf9ZQ8nS9nO4NmdXOu2oxRP8maQaD6ytPhavfUJaiRMDxawjyDzgwy1UvhhVMdvAU2wU0fa1W5ftZLfTpa1746WcfU5iLRvHSHJ07gjg/YBeeJ/x6+0puuozWoLkzhzq5pkzybpi04mDbAn03mYkM2yeunzz22TR3px/9sogAAFTRJREFUhSvMuA63+vLsIavb6WcysC8AP3PdP83qHE+OhrPhVI8A1FcwzXnN4HDWSXK2jafPU9h03tXpWz9548IFG5uyYbVLedqXzfQk0+1yUfneD6yrffRqJ2EMF5vC6xJQftZXnus2A0tta7k6SeAxXhCc2MIFu3prpHxWrnpbc9zHQx8YYZ5rrS659gtT2GcQPspPW7STZ+2a47Jnrld5a+zCPeuObJl27vzPYWBfAH7OWr+spZzdGjyqr46T59gFukc4WbphyLEKlAJIxHK4SOZ4Kwt+5WGjj5z12TTL+pyRK/44wSPMM7Ad5acttbM/e/Svjr412OAk/NOumT9j2zpm2uotgjmby3zJGTDhnrbAnNRO0oPHFcet5dYk7BN/OqZ+e7t6F4rad9oM3MPAvgDcw94e++EMTEfNsXLA5OosK882485IenLA8v0pXN/3FxAEhUmEJ+ICv+BfnQADb46/T3pz/hw7nGtZ/a0y/QWL5lrHhgkutiQn79O2mXcxIGtrLH3qzZmNMKzBTp9bZesiUJJzDnltYYSPnHU4qM3asQu2dNoL6s5Kf6K6joc3iavmdBEIH6zh22kzcIaBfQE4w9oe82kMCJyeKnOCnG+OsQ+nqD7Jaa6O9dYyPRxyQdk8tU0n/F7QFFBmYBSgppS/FetR/7DCW7tLhSfk5sqOAkr4YRRgwop7ci5+9htTX/n6NB/+JoaZP8J8Tx37zEvXilk5/NYQB7VZS/bQI2A/0obWIH1J+Jtv7oPsaZ9bK5jZseVm4AwD+wJwhrU95ssY4JA5R8GfFKhzoDPPgZ+RnD195k5XbaWCRx9pBkuYtc1yjjw9q84cvXnPYDZGIEy/PL2kudniDQa885V/eLPNJUYgmjaZO77oVjdxWDNtZ2U6C5zWh53JNbVG7LFevc0R8OuvvXycsANf6ZU/i9m4OFh1saP6eSEIbzhxjfvVxl3eDFzLwL4AXMvU7vdlDDyzg+a8c9RHaQ2U/gxvBpzGFRA8lZf3pClQnJXhE1DoCKt/CEewZEd9CkqSYFNQLC9o1j7ztbnM0E1nc3zU38Ef8dR8cRkefId3cj6DPFvrz14XF5cUcnI587g9I/FEn7npmvjkt9wMPIKBfQF4BItbx4cxkFPuU/IEVJ4z57A5SwGBU1V/j8whp8+TJl3qBVH14SvwT9zlBUzBpz4uCOwr0MynPjrvkYJXeP2bCOnLpoLOJa7WgA9r3PexNuVXHdMG/CTVC3b32DXHZqP1iMuZ8G7PWJfsefavmLIjvLgvz455uZn27vxm4FoG9gXgWqZ2vy9lgBPnvCsL/gGrXkAQCJTvkS4Uq44ZwAS/+pYX8MLFcZefeF0C1j5ev2fDOueZsoA79YVv4qxNP5cF5eacaeLGeVyk01hzJfHUE7k8vvQ7Y5cx6aAPv/Pign8yW6YNgmn1dNJHVg/72kf5rDRH3Mm3j+aPTGGcuOea7Pxm4CwD/3u6z2rZ4zYDH8jADPpNszpC7SRHujrts066IFOAE9jpof+oTV+Ywp0j58yV14sNGo0z1z0yPiZGgTqdM28OdSQ+wxbebKjvWwF8ts3LhHrSnPfI1qEUZ/jFa/VHdfNCYG7rqZyszlqufDzCBrrNmQ32d3kfNsCdfdPGXwTs/2wGbmRgXwBuJGx3fy4GVieYo+QkC1x9pqOWF9RyvB8doNJf8nRfHsb51Jqzl6ZdgkMBaOJWz6YZTAQrfZ5VTnuygy3hFXynXdOOxsaTIBl3+MTjKmf71HU2P/HDaT9NW+j3Rqm2xjYmudNm4CsY2BeAr2B9z/lQBgoAOXZPSVN5dZxvkpMmPfV91CvqGYibYz7dTZwz4M+LwOzDjrALHPSzoz4CkP7PLOEP41s2+HrFpWDyMvPrxQqXZH3xcRSgtV0r7SOycQX0eTEIc+X548g599wTLigT77Rv5zcDj2RgXwAeyebW9eUMcKbzaTtQOebpdKeD57yTgucMRrPvrfkcf3oFhGS6J76cfR8XmNX5K7sk0AUL/Kt9j7LBPB8l8cMOa9DlQJ25W8t4wtnkEX94Ssrrn554Sm8XMnrvkX5YmU6cz7y65mBbdSVr+6vw139gJmfbzm8GHsnAvgA8ks2t69MZ4CRz/vKcarJ6T1XlBc8ZLHPWH/VnagKOAGPenmjDGyaXlsgTqKovX5/kDHTy6fJKeZ1HoDHvs0pvAKwLewRN9eHHz5S/Kv969W/9k/K1x2Xj6XwkFxMfves89emyoW+YrOFcb2tduzcZ7NtyM/ARDOwLwEewunV+GgM5Tc4yZ1oqoPZ/ppPmn0vpm7MugArInHflLgSVBSdtZyRd6zyCQe2lgpSLCtwziFXHPv2zZcWUPsHf3GufZyuvAXOWy1uz1hEHAudswwveBP7sxUn51sJT+6O4aK/MNwpHe8e6ThvUJe1Z+4Ads8/ObwYeycC+ADySza3rSxgQBHL4nGhAcrTaOFUAXRwESQG5gDDzjwgQzUFneXNO3QUl6c8//5T9JbMh20rZMd8Y6Dh1vWpe4Bc8s42t7K9OnnQZwAWJB5evyX3rYU30OyPT6TJBHzvSV756qT/vm4G9fGtqn9aPXbOf8VtuBh7JwL4APJLNrevTGbgUIHKeHKjgX6DogjCdbYA5/pz5DBbq75Hpm8FG8O9Vd/meTAWOyjOFmw3Ve3JUV7tgwcawmoO8B/9HjxUse3qGN1vZxuZemXttbs3rV16fgmsJ5n50l356J8/6fIS0h5IwJuEs37rNsrpk6b///e9fuS02Ax/HwL4AfBy3W/MnMlBQ5FAFw7emF0xmn4KBILHmzwYK+pIzMKz6BMLq6+eSkk3TLsF/BsHap/2VzbXO84zlaftcD3mXnMrT7lnfesaxtweCPnt9BaDeumi/RzYnffQf7cG5jtmibE1Jdm+5GfhoBvYF4KMZ3vqfmgFBZDrsgoEASlZ35OgFDkGsQCAYaLtHwjUDn8sBYvWpPPPNO7EIjvCwTdCqnh3lBU39j+TUT49x6ddOrzJdlesXbgExO9g4g+JRvjHpSj976IZH+awMI/zpWG2gt3pproO6LTcDz8bAvgA824psPF/GQEHHq9mcugDC+Vfm/JOVfWbwkRcIBYizsjlK4RMkC4bwHhE2LwwwN/9RoNTOzmn7e5jDtvZPH51JfNRPPW6yB9ZLQdOaZOe0Pw5WfM2VHeZZ228tw2lc5Wxml/lqL4XJ26VL9hyt167bDHwFA/sC8BWs7zmfigGOegaXAFYWFP15Wo5ecEnKV993zoLd+rQtgJyR5ikQFvTnkzAi2eB78OrrKxg1ZmLNLraFaf6CvQBXm+D+HmY/gjOu/jOvrF/luF0vNGGGP7wCP3uzsbrK6cc17DNY4+w97Ne2N5f5VonrpHUov9Nm4NkZ2BeAZ1+hje9DGSiglAR/k/3xxx+/shx6gaKgXmAUAATIAv8MPvrOgHttoFn70WHe5pR6cg63YKmeZJMn7OrTD/86V4G0ecy5th+Vj/qmQ1/tZPVrimMXldpmXl919LBBmZwXA+sDyxmZ3vTQnw5z4zeM9gm8a1n9lpuBZ2Lg36fxmdBtLJuBT2IgZ74Gojm1i4IgIuDPwFBbwULgIY15hJzzTXzlwy8o+bcP4E7W3lN3KSwC9fqPIMGt/RrcXY48idd/vgFR37zhK5jDKbDXBnN5T/3lS1MfDuA8uoDdepF5y8b59mfa8he0X28lysPPNlzrt+Vm4NkY2BeAZ1uRjedTGSjQFBhnwJlBqbY+Uv0EHsGAdCl4K5jc2ib49NQp8M1gmL6SYBM+ASjc8mR9Bara6WST8rXBv3Fe7V8ai7/5JkJdeLqchA9Gsj59jjhrrjXIh8PT+crRkY5b6lrbdM59Eud4Zxv+Z79fC7T/sxl4Qgb2BeAJF2VD+lwGprOegWmi8AStriB1FEAKQGtgOup3ts4lw4VAoA6XQArjWhdmtrJTuYCazkcETkE4uWLo32EIh/nJ+lXvU5keNsNWWVsXkLC7wMSrNuPOcm0cO+bFUOAPp+Bfftoz+9S202bg2RjYF4BnW5GN51MZuOS8BcaC6kzTqQtWBYqCk8AjcMygpO5WmQ56BMDKBb0+5k5WLoUdtspsqG7iV0/CZp7VHu2rrD8ssAqEzUm/Nw+Tz/Jw6Zd+emAh59yzTr5x+Jl9z+bhm5jDW4pnmCuXn2X95tid3ww8EwP7AvBMq7GxvDQDgownT0/n1QuQ2pSNuUcW/OgTOK8NwC46+sNBn/IluV4SsnleMtIrEM7gOBdavTkE81W39ltlttDFLnNMXbXN+olx5zcD35GBfQH4jqu6bfo0BgRQQUwAFmgq+x6/YKN9Bp5H5wW7ZClsgvD6Cr72gjQ7jJ2Y38MnaBb8+6Sr+ehsDpeC6uWr10eQpuu9Oa9tj+9swnsXMGtTffnatKd3p83AT2Fg7/afstLbzg9jQBBrAt8TF0jmGwDBRr03AdcGskv9ClyCtcA2522cp/ujrzsKyC4H2VF/l4BVzxEGP4CcfRHtEmB+85BdBGAWgJWnvqN5r62jJ/1+rGiuqaN5S9YSRrZsuRn4jgzsC8B3XNVt06cxILh5AyCABKDLwAymBZlHBf4ZvMr35CwYK+ujPkwFtnCtAY4dAvBRkKTvSLKrubpo+Ad9zBM/cePpPx3muPRniLg7mu+WuuYxV+PSS3fSWv3K/LVu4Z5rqW3LzcB3YmBfAL7Tam5bvoSBAsUMFgU7FwKAZsASkASh2XZrXsCe4zz1VqedrG5N88d59Ajoym/JOV+2CfqTE3NWB8sMyunv8pAu7W/NeW0bbLieczZfF5K5VrDDu+Vm4Dsz8G9v8J2t3bZtBh7MgCfnApun3hn4fCXQtAUtgejaAHZNv/lqW8Ar0Mmno7J+lQt0nsbDBnNt3hhcM7c+BW22pa+3AIKpIKtvuCa2dU7YZ7A29oycetgWxhn4w2stq5/c1HenzcB3ZGBfAL7jqm6bPo2BAmcBQwCdgU+Ame09bfd0XcB8xJOu4EYWIKfuGZi1JT3hh62P4EfPtT/GE/QF5n6PIHUBSHdBF6YZ+OXxoJwuOOg9K+FLNo9LCclu66c+G9SxZ8vNwHdjYF8AvtuKbns+nQGBrokFEE+QBcA1VVdwORvU5jjBszpBU3AX9GoTXGf/6ivXD/ZLumf9UT495hdUq5v1xjVfH2XjKsNZnh36nZVhaKzUJa1kbZRbE9hbR2tp3Jabge/GwD+n4rtZtu3ZDLwAAwUmAUqAU56BsTbBsfY+a7vxnymPMET7DPD34JmXAPanz7zrPPPNBZ7C42uIuSX2E/5kY+d/IgP7AvATV33b/FQM9CRaUPPnfOVnIBP4Zt09QfXRY11Y0ltgVob73vkE+/TQaQ66uwhoq672oxTXPeXvp/sjdnbdT2NgXwB+2opve5+SgZ5Q+8wn2gK+4EfOdj9oEwS/Qgq6YZ3YHoUlu5uD/emddtcGQ20Ffk/2foBJetX/lBtgg9oMfAED+wLwBaTvKTcDk4H5Z3iC1QygBT8BsAD3EYF2zndrHp4ZiOfbjFv1HfXP7vTP4D/7wYBXwd6TPtnlwHf/LgrGbLkZ+GkM7AvAT1vxbe9TMVBg8gFMgJrBvguAICe4PsNXAr/99tuvry9cUCYmeGegvjXvUkG/8f7xIO1x1xuUXu/jj+yfP14vBPXdFwA7bsufysC+APzUld92PxUDBSsBixSgBD2yi0Ef5a+WnsoF/DVY34tPkGcz/ZX9an++RfG0v16sugjgtgvATpuBn87AvgD89B2w7f9SBjyZAlFZ4OoCUNCSCqT+MZ+C3/yF/L1B9uz49bv/cPURpM/qPRpnrvSXXJBcAirP4F+wr66PwN84+ZV7PG+5GfgpDOwLwE9Z6W3n0zJQ0BLEAimIASzQ9dRamyfuoyD52XWe+l1GPK0/6gJA//xqIV4EcbI6/Mx2HOI3/vCpbcvNwE9lYF8AfurKb7tfhoGCl0uB4DUD4lHQFzjn07i6o/4fXefNQPO4JJRnBxnG+s422FowPKz5l1nMDXQz8EQM7AvAEy3GhrIZWBkQ8MkCoCfdLgYCak/cM4hWvwb8GXj9eE9w/SjpzcDEUj683hLA9X//939//65hvuWIE0/unvjxsfK1y5uBzcD1DOwLwPVc7Z6bgU9noMDnTwNNPoNf7QVFT80CucBbkC3AuhzMi4EAbMxHSXMX+GeQn5hhmReF7GVrdkozr27LzcBm4HYG9gXgds72iM3ApzPQD9bmRWD9AZuvCQriguwMsLPeE7eg+1GBP71hcAEwT5cTGKtbcYRP8sQ/yy4F+5f8WNlyM3COgX0BOMfbHrUZ+BQGBLv51CvwVafej9wCJdAWSF0CvHZXdgnQ96Ok4J6UNxcss8yebGR78o8//vgUvvckm4GfxMC+APyk1d62viQD/sa94DifiAuM1Qn+BU35DC2wrkG2OoGYFIA/Q/pqYn7HP/8Xwi43c6HmRcCbj2nn7Lvzm4HNwPUM7AvA9VztnpuBT2dAoCMD0CVA8K88g2YXAgFTvaBbwPfkf3Qx+KgLQHM17/x+31xhyp7s8xXHvOiwoTb52vHwK7P/sxnYDJxiYF8ATtG2B20GPocBwa7Z5AVCF4HaejLWXr08KeAWjH3UfaRc3zJ0CfCbgLC5rByxCbun/vpk25RH43bdZmAzcB0D+wJwHU+712bgJRkQYAXTgr83Ai4CyTVQ63PN5aDx9aNjHaudhGW+1XhJcjfozcCLM7AvAC++gBv+ZuAtBgTb3hrI95uC/knhNfAL0L6f93XBNZcAwZ+OynN89dJ8Q6Fuy83AZuDzGdgXgM/nfM+4Gfg0BrwB8LQ9vyqoTcAuyB99R/9e8G88HQV9FwG6SAbPHzS6kGjbcjOwGfhcBvYF4HP53rNtBj6dAYHWJYAMSG1e3wveBfQCt/J7l4DeJgj09Z1fAaS/+ebvFbp4wPTpZOwJNwObgb8Z2BeAv6nYmc3A92OgV//eAgi6LgDKWd2bgfcC/TXtXvv7sZ4fLJLmbk5134/1bdFm4DUY2BeA11injXIzcJoB37kn11/UdwlwQTBBgb5f6nu1/1bg7/cCvSnwBiB9Lhbp7WPOtd58W24GNgNfw8C+AHwN73vWzcCnMOA793Wy+SQuMOvrQvBW4Ncm8FeW6COrn/NVnm3GbbkZ2Ax8LgP/nNrPnXfPthnYDHwSAz359xHYTSsoF4zXNgFaoH9LrvqUk81Bt1f+dIdpp83AZuDrGPh/jNw0vdh75SIAAAAASUVORK5CYII=;clipPath=inset(0% 20.67% 0.33% 20.33%);" parent="1" vertex="1">
          <mxGeometry x="494.98999999999995" y="200" width="118.4" height="200" as="geometry" />
        </mxCell>
        <mxCell id="WSRzsh4i6WaBvUtmSaur-42" style="edgeStyle=orthogonalEdgeStyle;rounded=0;orthogonalLoop=1;jettySize=auto;html=1;" parent="1" source="WSRzsh4i6WaBvUtmSaur-4" edge="1">
          <mxGeometry relative="1" as="geometry">
            <mxPoint x="1020" y="300" as="targetPoint" />
          </mxGeometry>
        </mxCell>
        <mxCell id="WSRzsh4i6WaBvUtmSaur-4" value="" style="image;aspect=fixed;perimeter=ellipsePerimeter;html=1;align=center;shadow=0;dashed=0;spacingTop=3;image=img/lib/active_directory/windows_server.svg;points=[[0,0,0,0,0],[0,0.25,0,0,0],[0,0.5,0,0,0],[0,0.75,0,0,0],[0,1,0,0,0],[0.25,0,0,0,0],[0.25,1,0,0,0],[0.38,0.98,0,0,0],[0.5,0,0,0,0],[0.5,1,0,0,0],[0.62,0.98,0,0,0],[0.75,0,0,0,0],[0.75,1,0,0,0],[1,0,0,0,0],[1,0.25,0,0,0],[1,0.5,0,0,0],[1,0.75,0,0,0],[1,1,0,0,0]];imageBackground=default;" parent="1" vertex="1">
          <mxGeometry x="760" y="200" width="164" height="200" as="geometry" />
        </mxCell>
        <mxCell id="WSRzsh4i6WaBvUtmSaur-5" value="" style="shape=mxgraph.signs.people.man_1;html=1;pointerEvents=1;fillColor=#000000;strokeColor=none;verticalLabelPosition=bottom;verticalAlign=top;align=center;" parent="1" vertex="1">
          <mxGeometry x="290" y="215" width="60" height="170" as="geometry" />
        </mxCell>
        <mxCell id="WSRzsh4i6WaBvUtmSaur-10" value="Binary Classification" style="sketch=0;html=1;verticalAlign=top;labelPosition=center;verticalLabelPosition=bottom;align=center;spacingTop=-6;fontSize=16;fontStyle=1;fontColor=#999999;shape=image;aspect=fixed;imageAspect=0;image=data:image/svg+xml,PHN2ZyB4bWxucz0iaHR0cDovL3d3dy53My5vcmcvMjAwMC9zdmciIGlkPSJzdmcyNDYzMyIgdmVyc2lvbj0iMS4xIiB2aWV3Qm94PSIwIDAgMzE4Ljg3MDk3IDI1NC42NzY0MyIgaGVpZ2h0PSIyNTQuNjc2NDRtbSIgd2lkdGg9IjMxOC44NzA5N21tIj4mI3hhOyAgJiN4YTsgIDxkZWZzIGlkPSJkZWZzMjQ2MzAiLz4mI3hhOyAgPGcgdHJhbnNmb3JtPSJ0cmFuc2xhdGUoLTAuMTk0MzAzNDIsLTUuNDMxMTkyOSkiIGlkPSJsYXllcjEiPiYjeGE7ICAgIDxwYXRoIHRyYW5zZm9ybT0ibWF0cml4KDAuMjY0NTgzMzMsMCwwLDAuMjY0NTgzMzMsMy4zOTQ2MjQ4LDE3LjgxMDI4MikiIGQ9Ik0gNTkwLjAzNTE2LC00Ni43ODcxMDkgLTEyLjA5NTcwMyw0MzUuMTk3MjcgSCAxMTkzLjA4NTkgWiIgc3R5bGU9Im9wYWNpdHk6MTtmaWxsOiNiNWNiZjk7ZmlsbC1vcGFjaXR5OjE7c3Ryb2tlOm5vbmU7c3Ryb2tlLXdpZHRoOjAuOTk5OTk5cHg7c3Ryb2tlLWxpbmVjYXA6YnV0dDtzdHJva2UtbGluZWpvaW46bWl0ZXI7c3Ryb2tlLW9wYWNpdHk6MSIgaWQ9InBhdGgxMDYyIi8+JiN4YTsgICAgPHBhdGggdHJhbnNmb3JtPSJtYXRyaXgoMC4yNjQ1ODMzMywwLDAsMC4yNjQ1ODMzMywzLjM5NDYyNDgsMTcuODEwMjgyKSIgZD0iTSAtMTIuMDk1NzAzLDQzNS4xOTcyNyA1OTAuNDk0MTQsOTE1Ljc2OTUzIDExOTMuMDg1OSw0MzUuMTk3MjcgWiIgc3R5bGU9Im9wYWNpdHk6MTtmaWxsOiM3NjllZjU7ZmlsbC1vcGFjaXR5OjE7c3Ryb2tlOm5vbmU7c3Ryb2tlLXdpZHRoOjcuNDI2Nzc7c3Ryb2tlLWxpbmVjYXA6YnV0dDtzdHJva2UtbGluZWpvaW46bWl0ZXI7c3Ryb2tlLW1pdGVybGltaXQ6NDtzdHJva2UtZGFzaGFycmF5Om5vbmU7c3Ryb2tlLW9wYWNpdHk6MSIgaWQ9InBhdGgxMDY0Ii8+JiN4YTsgICAgPHBhdGggaWQ9InBhdGgyMjU5IiBkPSJtIDE1OS4yMDg4OCw5OC41MTk1NjcgYyAxOS4wNjkwNSwwIDM0LjI1OTkyLDE1LjE5MDg3MyAzNC4yNTk5MiwzNC4yNTk5MjMgMCwxOS4wNjkwNSAtMTUuMTkwODcsMzQuMjU5NDEgLTM0LjI1OTkyLDM0LjI1OTQxIC0xOS4wNjkwNCwwIC0zNC4yNTk5MiwtMTUuMTkwMzYgLTM0LjI1OTkyLC0zNC4yNTk0MSAwLC0xOS4wNjkwNSAxNS4xOTA4NywtMzQuMjU5OTIzIDM0LjI1OTkyLC0zNC4yNTk5MjMgeiIgc3R5bGU9ImNvbG9yOiMwMDAwMDA7b3BhY2l0eToxO2ZpbGw6IzU5ODZmMjtmaWxsLW9wYWNpdHk6MTtzdHJva2Utd2lkdGg6MTtzdHJva2UtbGluZWNhcDpyb3VuZDtzdHJva2UtbGluZWpvaW46cm91bmQ7LWlua3NjYXBlLXN0cm9rZTpub25lIi8+JiN4YTsgICAgPHBhdGggZD0ibSAyMjEuNjUyMzcsMjEwLjY0Mzk5IC0yOC45MzM2NSwtMjkuMDcyMTMgYyAtOS41NDkyMyw2LjU5MzE1IC0yMS4xMDA1MiwxMC40NjcwNiAtMzMuNTEwMDgsMTAuNDY3MDYgLTMyLjUyMDk3LDAgLTU5LjE2MDg2LC0yNi41ODMxNiAtNTkuMjU3MzU3LC01OS4wODI3IC0xLjhlLTQsLTAuMDU5IC0wLjAwMywtMC4xMTc2NiAtMC4wMDMsLTAuMTc2NzMgMCwtMzIuNTgwMDQgMjYuNjc5Mzg3LC01OS4yNTk5NDcgNTkuMjU5NDM3LC01OS4yNTk5NDcgMzIuNTgwMDUsMCA1OS4yNTk5NSwyNi42Nzk5MDcgNTkuMjU5OTUsNTkuMjU5OTQ3IDAsMC4wNTkyIC0wLjAwMywwLjExNzYyIC0wLjAwMywwLjE3NjczIC0wLjAzNDYsMTEuNjE5OTggLTMuNDYwNDgsMjIuNDgzNDcgLTkuMzM3NDEsMzEuNjQ2MTMgbCAzMS4wODc1MSwzMS4yMzY4NiB6IE0gMTU5LjIwODY0LDk4LjUxOTU2NyBjIC0xOS4wNjkwNSwwIC0zNC4yNTk5MiwxNS4xOTA4NzMgLTM0LjI1OTkyLDM0LjI1OTkyMyAwLDE5LjA2OTA1IDE1LjE5MDg3LDM0LjI1OTQxIDM0LjI1OTkyLDM0LjI1OTQxIDE5LjA2OTA1LDAgMzQuMjU5OTEsLTE1LjE5MDM2IDM0LjI1OTkxLC0zNC4yNTk0MSAwLC0xOS4wNjkwNSAtMTUuMTkwODYsLTM0LjI1OTkyMyAtMzQuMjU5OTEsLTM0LjI1OTkyMyB6IiBzdHlsZT0iZmlsbDojZmZmZmZmO2ZpbGwtb3BhY2l0eToxO3N0cm9rZTpub25lO3N0cm9rZS13aWR0aDowLjI2NDU4M3B4O3N0cm9rZS1saW5lY2FwOmJ1dHQ7c3Ryb2tlLWxpbmVqb2luOm1pdGVyO3N0cm9rZS1vcGFjaXR5OjEiIGlkPSJwYXRoMTA2Mi03Ii8+JiN4YTsgIDwvZz4mI3hhOzwvc3ZnPg==;points=[[0,0,0,0,0],[0,0.25,0,0,0],[0,0.5,0,0,0],[0,0.75,0,0,0],[0,1,0,0,0],[0.25,1,0,0,0],[0.37,0,0,0,0],[0.5,0,0,0,0],[0.5,1,0,0,0],[0.63,0,0,0,0],[0.75,1,0,0,0],[1,0,0,0,0],[1,0.25,0,0,0],[1,0.5,0,0,0],[1,0.75,0,0,0],[1,1,0,0,0]];" parent="1" vertex="1">
          <mxGeometry x="767.88" y="510" width="148.24" height="120" as="geometry" />
        </mxCell>
        <mxCell id="WSRzsh4i6WaBvUtmSaur-23" value="Face Detection" style="outlineConnect=0;dashed=0;verticalLabelPosition=bottom;verticalAlign=top;align=center;html=1;shape=mxgraph.aws3.camera;fillColor=#5294CF;gradientColor=none;fontColor=#999999;fontStyle=1;fontSize=16;" parent="1" vertex="1">
          <mxGeometry x="494.39" y="-20" width="120" height="120" as="geometry" />
        </mxCell>
        <mxCell id="WSRzsh4i6WaBvUtmSaur-27" value="DB" style="image;aspect=fixed;perimeter=ellipsePerimeter;html=1;align=center;shadow=0;dashed=0;spacingTop=3;image=img/lib/active_directory/database.svg;" parent="1" vertex="1">
          <mxGeometry x="1030" y="220" width="216.22" height="160" as="geometry" />
        </mxCell>
        <mxCell id="WSRzsh4i6WaBvUtmSaur-29" value="" style="endArrow=classic;html=1;rounded=0;" parent="1" edge="1">
          <mxGeometry width="50" height="50" relative="1" as="geometry">
            <mxPoint x="360" y="200" as="sourcePoint" />
            <mxPoint x="480" y="80" as="targetPoint" />
          </mxGeometry>
        </mxCell>
        <mxCell id="WSRzsh4i6WaBvUtmSaur-33" value="" style="endArrow=classic;html=1;rounded=0;entryX=0;entryY=0;entryDx=0;entryDy=0;entryPerimeter=0;" parent="1" target="WSRzsh4i6WaBvUtmSaur-4" edge="1">
          <mxGeometry width="50" height="50" relative="1" as="geometry">
            <mxPoint x="640" y="80" as="sourcePoint" />
            <mxPoint x="690" y="30" as="targetPoint" />
          </mxGeometry>
        </mxCell>
        <mxCell id="WSRzsh4i6WaBvUtmSaur-35" style="edgeStyle=orthogonalEdgeStyle;rounded=0;orthogonalLoop=1;jettySize=auto;html=1;" parent="1" source="WSRzsh4i6WaBvUtmSaur-1" edge="1">
          <mxGeometry relative="1" as="geometry">
            <mxPoint x="360" y="300" as="targetPoint" />
          </mxGeometry>
        </mxCell>
        <mxCell id="WSRzsh4i6WaBvUtmSaur-39" value="" style="endArrow=classic;startArrow=classic;html=1;rounded=0;exitX=1;exitY=0.5;exitDx=0;exitDy=0;entryX=0;entryY=0.5;entryDx=0;entryDy=0;entryPerimeter=0;" parent="1" source="WSRzsh4i6WaBvUtmSaur-1" target="WSRzsh4i6WaBvUtmSaur-4" edge="1">
          <mxGeometry width="50" height="50" relative="1" as="geometry">
            <mxPoint x="680" y="330" as="sourcePoint" />
            <mxPoint x="730" y="280" as="targetPoint" />
          </mxGeometry>
        </mxCell>
        <mxCell id="WSRzsh4i6WaBvUtmSaur-40" value="" style="endArrow=classic;startArrow=classic;html=1;rounded=0;entryX=0.5;entryY=1;entryDx=0;entryDy=0;entryPerimeter=0;" parent="1" target="WSRzsh4i6WaBvUtmSaur-4" edge="1">
          <mxGeometry width="50" height="50" relative="1" as="geometry">
            <mxPoint x="841" y="500" as="sourcePoint" />
            <mxPoint x="843" y="400" as="targetPoint" />
          </mxGeometry>
        </mxCell>
        <mxCell id="WSRzsh4i6WaBvUtmSaur-43" value="1" style="ellipse;whiteSpace=wrap;html=1;aspect=fixed;strokeWidth=2;fontFamily=Tahoma;spacingBottom=4;spacingRight=2;strokeColor=#6c8ebf;fontSize=16;fontStyle=1;fillColor=#dae8fc;" parent="1" vertex="1">
          <mxGeometry x="399" y="130" width="30" height="30" as="geometry" />
        </mxCell>
        <mxCell id="WSRzsh4i6WaBvUtmSaur-44" value="2" style="ellipse;whiteSpace=wrap;html=1;aspect=fixed;strokeWidth=2;fontFamily=Tahoma;spacingBottom=4;spacingRight=2;strokeColor=#6c8ebf;fontSize=16;fontStyle=1;fillColor=#dae8fc;" parent="1" vertex="1">
          <mxGeometry x="681" y="120" width="30" height="30" as="geometry" />
        </mxCell>
        <mxCell id="WSRzsh4i6WaBvUtmSaur-45" value="3" style="ellipse;whiteSpace=wrap;html=1;aspect=fixed;strokeWidth=2;fontFamily=Tahoma;spacingBottom=4;spacingRight=2;strokeColor=#6c8ebf;fontSize=16;fontStyle=1;fillColor=#dae8fc;" parent="1" vertex="1">
          <mxGeometry x="827" y="435" width="30" height="30" as="geometry" />
        </mxCell>
        <mxCell id="WSRzsh4i6WaBvUtmSaur-46" value="4" style="ellipse;whiteSpace=wrap;html=1;aspect=fixed;strokeWidth=2;fontFamily=Tahoma;spacingBottom=4;spacingRight=2;strokeColor=#6c8ebf;fontSize=16;fontStyle=1;fillColor=#dae8fc;" parent="1" vertex="1">
          <mxGeometry x="676" y="287" width="30" height="30" as="geometry" />
        </mxCell>
        <mxCell id="WSRzsh4i6WaBvUtmSaur-49" value="5" style="ellipse;whiteSpace=wrap;html=1;aspect=fixed;strokeWidth=2;fontFamily=Tahoma;spacingBottom=4;spacingRight=2;strokeColor=#6c8ebf;fontSize=16;fontStyle=1;fillColor=#dae8fc;" parent="1" vertex="1">
          <mxGeometry x="414" y="285" width="30" height="30" as="geometry" />
        </mxCell>
        <mxCell id="WSRzsh4i6WaBvUtmSaur-50" value="6" style="ellipse;whiteSpace=wrap;html=1;aspect=fixed;strokeWidth=2;fontFamily=Tahoma;spacingBottom=4;spacingRight=2;strokeColor=#6c8ebf;fontSize=16;fontStyle=1;fillColor=#dae8fc;" parent="1" vertex="1">
          <mxGeometry x="953" y="285" width="30" height="30" as="geometry" />
        </mxCell>
        <mxCell id="r8NQVymmpVJT9qRF4ye_-3" value="흐름도" style="swimlane;childLayout=stackLayout;resizeParent=1;resizeParentMax=0;startSize=20;html=1;fillColor=#dae8fc;strokeColor=#6c8ebf;fontSize=16;swimlaneFillColor=default;" vertex="1" parent="1">
          <mxGeometry x="640" y="-900" width="720" height="580" as="geometry" />
        </mxCell>
        <mxCell id="r8NQVymmpVJT9qRF4ye_-4" value="Client" style="swimlane;startSize=20;html=1;fillColor=#dae8fc;strokeColor=#6c8ebf;fontSize=14;" vertex="1" parent="r8NQVymmpVJT9qRF4ye_-3">
          <mxGeometry y="20" width="240" height="560" as="geometry" />
        </mxCell>
        <mxCell id="r8NQVymmpVJT9qRF4ye_-8" value="키오스크 접근" style="rounded=0;whiteSpace=wrap;html=1;fillColor=#dae8fc;strokeColor=#6c8ebf;" vertex="1" parent="r8NQVymmpVJT9qRF4ye_-4">
          <mxGeometry x="60" y="59" width="120" height="60" as="geometry" />
        </mxCell>
        <mxCell id="r8NQVymmpVJT9qRF4ye_-42" style="edgeStyle=orthogonalEdgeStyle;rounded=0;orthogonalLoop=1;jettySize=auto;html=1;exitX=0.5;exitY=0.65;exitDx=0;exitDy=0;exitPerimeter=0;" edge="1" parent="r8NQVymmpVJT9qRF4ye_-4" source="r8NQVymmpVJT9qRF4ye_-39">
          <mxGeometry relative="1" as="geometry">
            <mxPoint x="160" y="340" as="sourcePoint" />
            <mxPoint x="120.02857142857147" y="399" as="targetPoint" />
          </mxGeometry>
        </mxCell>
        <mxCell id="r8NQVymmpVJT9qRF4ye_-39" value="맞춤형 UI 제공" style="shape=document;whiteSpace=wrap;html=1;boundedLbl=1;fillColor=#dae8fc;strokeColor=#6c8ebf;" vertex="1" parent="r8NQVymmpVJT9qRF4ye_-4">
          <mxGeometry x="60" y="248" width="120" height="80" as="geometry" />
        </mxCell>
        <mxCell id="r8NQVymmpVJT9qRF4ye_-41" value="키오스크 이용&lt;br&gt;주문 프로세스 진행" style="rounded=0;whiteSpace=wrap;html=1;fillColor=#dae8fc;strokeColor=#6c8ebf;" vertex="1" parent="r8NQVymmpVJT9qRF4ye_-4">
          <mxGeometry x="60" y="399" width="120" height="60" as="geometry" />
        </mxCell>
        <mxCell id="r8NQVymmpVJT9qRF4ye_-5" value="Front" style="swimlane;startSize=20;html=1;fillColor=#dae8fc;strokeColor=#6c8ebf;fontSize=14;" vertex="1" parent="r8NQVymmpVJT9qRF4ye_-3">
          <mxGeometry x="240" y="20" width="240" height="560" as="geometry" />
        </mxCell>
        <mxCell id="r8NQVymmpVJT9qRF4ye_-9" value="얼굴 탐지&lt;br&gt;(Obejct Detection)" style="rounded=0;whiteSpace=wrap;html=1;fillColor=#dae8fc;strokeColor=#6c8ebf;" vertex="1" parent="r8NQVymmpVJT9qRF4ye_-5">
          <mxGeometry x="60" y="89" width="120" height="60" as="geometry" />
        </mxCell>
        <mxCell id="r8NQVymmpVJT9qRF4ye_-33" value="키오스크" style="swimlane;whiteSpace=wrap;html=1;fillColor=#dae8fc;strokeColor=#6c8ebf;" vertex="1" parent="r8NQVymmpVJT9qRF4ye_-5">
          <mxGeometry x="50" y="188" width="140" height="200" as="geometry" />
        </mxCell>
        <mxCell id="r8NQVymmpVJT9qRF4ye_-17" value="기존 UI" style="rounded=0;whiteSpace=wrap;html=1;fillColor=#dae8fc;strokeColor=#6c8ebf;" vertex="1" parent="r8NQVymmpVJT9qRF4ye_-33">
          <mxGeometry x="25" y="40" width="90" height="60" as="geometry" />
        </mxCell>
        <mxCell id="r8NQVymmpVJT9qRF4ye_-22" value="디지철 소외계층 맞춤형 UI" style="rounded=0;whiteSpace=wrap;html=1;fillColor=#dae8fc;strokeColor=#6c8ebf;" vertex="1" parent="r8NQVymmpVJT9qRF4ye_-33">
          <mxGeometry x="25" y="120" width="90" height="60" as="geometry" />
        </mxCell>
        <mxCell id="r8NQVymmpVJT9qRF4ye_-44" value="주문 데이터 전송" style="rounded=0;whiteSpace=wrap;html=1;fillColor=#dae8fc;strokeColor=#6c8ebf;" vertex="1" parent="r8NQVymmpVJT9qRF4ye_-5">
          <mxGeometry x="60" y="429" width="120" height="60" as="geometry" />
        </mxCell>
        <mxCell id="r8NQVymmpVJT9qRF4ye_-6" value="Back" style="swimlane;startSize=20;html=1;fillColor=#dae8fc;strokeColor=#6c8ebf;fontSize=14;" vertex="1" parent="r8NQVymmpVJT9qRF4ye_-3">
          <mxGeometry x="480" y="20" width="240" height="560" as="geometry" />
        </mxCell>
        <mxCell id="r8NQVymmpVJT9qRF4ye_-12" value="연령 분류 모델&lt;br&gt;(Binary Classification)" style="rounded=0;whiteSpace=wrap;html=1;fillColor=#dae8fc;strokeColor=#6c8ebf;" vertex="1" parent="r8NQVymmpVJT9qRF4ye_-6">
          <mxGeometry x="60" y="119" width="120" height="60" as="geometry" />
        </mxCell>
        <mxCell id="r8NQVymmpVJT9qRF4ye_-11" value="40대 이상" style="rhombus;whiteSpace=wrap;html=1;fillColor=#dae8fc;strokeColor=#6c8ebf;" vertex="1" parent="r8NQVymmpVJT9qRF4ye_-6">
          <mxGeometry x="61" y="264" width="120" height="70" as="geometry" />
        </mxCell>
        <mxCell id="r8NQVymmpVJT9qRF4ye_-15" value="" style="endArrow=classic;html=1;rounded=0;entryX=0.5;entryY=0;entryDx=0;entryDy=0;exitX=0.5;exitY=1;exitDx=0;exitDy=0;" edge="1" parent="r8NQVymmpVJT9qRF4ye_-6" source="r8NQVymmpVJT9qRF4ye_-12" target="r8NQVymmpVJT9qRF4ye_-11">
          <mxGeometry width="50" height="50" relative="1" as="geometry">
            <mxPoint x="50" y="238" as="sourcePoint" />
            <mxPoint x="-270" y="238" as="targetPoint" />
          </mxGeometry>
        </mxCell>
        <mxCell id="r8NQVymmpVJT9qRF4ye_-45" value="판매량 수집" style="rounded=0;whiteSpace=wrap;html=1;fillColor=#dae8fc;strokeColor=#6c8ebf;" vertex="1" parent="r8NQVymmpVJT9qRF4ye_-6">
          <mxGeometry x="61" y="459" width="120" height="60" as="geometry" />
        </mxCell>
        <mxCell id="r8NQVymmpVJT9qRF4ye_-10" value="" style="endArrow=classic;html=1;rounded=0;exitX=1;exitY=0.5;exitDx=0;exitDy=0;entryX=0;entryY=0.5;entryDx=0;entryDy=0;" edge="1" parent="r8NQVymmpVJT9qRF4ye_-3" source="r8NQVymmpVJT9qRF4ye_-8" target="r8NQVymmpVJT9qRF4ye_-9">
          <mxGeometry width="50" height="50" relative="1" as="geometry">
            <mxPoint x="160" y="308" as="sourcePoint" />
            <mxPoint x="210" y="258" as="targetPoint" />
          </mxGeometry>
        </mxCell>
        <mxCell id="r8NQVymmpVJT9qRF4ye_-13" value="" style="endArrow=classic;html=1;rounded=0;entryX=0;entryY=0.5;entryDx=0;entryDy=0;exitX=1;exitY=0.5;exitDx=0;exitDy=0;" edge="1" parent="r8NQVymmpVJT9qRF4ye_-3" source="r8NQVymmpVJT9qRF4ye_-9" target="r8NQVymmpVJT9qRF4ye_-12">
          <mxGeometry width="50" height="50" relative="1" as="geometry">
            <mxPoint x="160" y="308" as="sourcePoint" />
            <mxPoint x="210" y="258" as="targetPoint" />
          </mxGeometry>
        </mxCell>
        <mxCell id="r8NQVymmpVJT9qRF4ye_-37" value="NO" style="edgeStyle=orthogonalEdgeStyle;rounded=0;orthogonalLoop=1;jettySize=auto;html=1;entryX=1;entryY=0.5;entryDx=0;entryDy=0;fontSize=14;fontStyle=1;" edge="1" parent="r8NQVymmpVJT9qRF4ye_-3" source="r8NQVymmpVJT9qRF4ye_-11" target="r8NQVymmpVJT9qRF4ye_-17">
          <mxGeometry x="0.4915" relative="1" as="geometry">
            <mxPoint as="offset" />
          </mxGeometry>
        </mxCell>
        <mxCell id="r8NQVymmpVJT9qRF4ye_-38" value="YES" style="edgeStyle=orthogonalEdgeStyle;rounded=0;orthogonalLoop=1;jettySize=auto;html=1;entryX=1;entryY=0.5;entryDx=0;entryDy=0;fontSize=14;fontStyle=1;" edge="1" parent="r8NQVymmpVJT9qRF4ye_-3" source="r8NQVymmpVJT9qRF4ye_-11" target="r8NQVymmpVJT9qRF4ye_-22">
          <mxGeometry x="0.4857" relative="1" as="geometry">
            <mxPoint as="offset" />
          </mxGeometry>
        </mxCell>
        <mxCell id="r8NQVymmpVJT9qRF4ye_-40" style="edgeStyle=orthogonalEdgeStyle;rounded=0;orthogonalLoop=1;jettySize=auto;html=1;entryX=1;entryY=0.5;entryDx=0;entryDy=0;" edge="1" parent="r8NQVymmpVJT9qRF4ye_-3" source="r8NQVymmpVJT9qRF4ye_-33" target="r8NQVymmpVJT9qRF4ye_-39">
          <mxGeometry relative="1" as="geometry" />
        </mxCell>
        <mxCell id="r8NQVymmpVJT9qRF4ye_-47" value="" style="endArrow=classic;html=1;rounded=0;exitX=1;exitY=0.5;exitDx=0;exitDy=0;entryX=0;entryY=0.5;entryDx=0;entryDy=0;" edge="1" parent="r8NQVymmpVJT9qRF4ye_-3" source="r8NQVymmpVJT9qRF4ye_-41" target="r8NQVymmpVJT9qRF4ye_-44">
          <mxGeometry width="50" height="50" relative="1" as="geometry">
            <mxPoint x="310" y="418" as="sourcePoint" />
            <mxPoint x="360" y="368" as="targetPoint" />
          </mxGeometry>
        </mxCell>
        <mxCell id="r8NQVymmpVJT9qRF4ye_-48" value="" style="endArrow=classic;html=1;rounded=0;exitX=1;exitY=0.5;exitDx=0;exitDy=0;entryX=0;entryY=0.5;entryDx=0;entryDy=0;" edge="1" parent="r8NQVymmpVJT9qRF4ye_-3" source="r8NQVymmpVJT9qRF4ye_-44" target="r8NQVymmpVJT9qRF4ye_-45">
          <mxGeometry width="50" height="50" relative="1" as="geometry">
            <mxPoint x="421" y="478" as="sourcePoint" />
            <mxPoint x="541" y="508" as="targetPoint" />
          </mxGeometry>
        </mxCell>
      </root>
    </mxGraphModel>
  </diagram>
</mxfile>
